<?xml version="1.0" encoding="UTF-8"?>
<svg width="50px" height="50px" viewBox="0 0 50 50" version="1.1" xmlns="http://www.w3.org/2000/svg" xmlns:xlink="http://www.w3.org/1999/xlink">
    <!-- Generator: Sketch 63.1 (92452) - https://sketch.com -->
    <title>Software Dev</title>
    <desc>Created with Sketch.</desc>
    <defs>
        <filter x="-8.8%" y="-15.0%" width="117.6%" height="130.0%" filterUnits="objectBoundingBox" id="filter-1">
            <feGaussianBlur stdDeviation="1" in="SourceGraphic"></feGaussianBlur>
        </filter>
    </defs>
    <g id="Simform-Website" stroke="none" stroke-width="1" fill="none" fill-rule="evenodd">
        <g id="Homepage-menu-" transform="translate(-1043.000000, -229.000000)">
            <g id="Group" transform="translate(168.000000, 68.000000)">
                <g id="Software-Dev" transform="translate(875.000000, 161.000000)">
                    <circle id="Oval" fill="#D3F3FF" cx="25" cy="25" r="25"></circle>
                    <g id="Tech-Architecture" transform="translate(8.000000, 15.000000)">
                        <path d="M1,22 C0.44771525,22 -4.26258006e-13,21.5522847 -4.26325641e-13,21 L-4.26325641e-13,20 C-4.26393277e-13,19.4477153 0.44771525,19 1,19 L2,19 L2,3 C2,2.44771525 2.44771525,2 3,2 L31,2 C31.5522847,2 32,2.44771525 32,3 L32,19 L33,19 C33.5522847,19 34,19.4477153 34,20 L34,21 C34,21.5522847 33.5522847,22 33,22 L1,22 Z" id="Combined-Shape" fill-opacity="0.502431163" fill="#63D5FF" filter="url(#filter-1)"></path>
                        <path d="M3,0 L31,0 C31.5522847,-1.01453063e-16 32,0.44771525 32,1 L32,19 C32,19.5522847 31.5522847,20 31,20 L3,20 C2.44771525,20 2,19.5522847 2,19 L2,1 C2,0.44771525 2.44771525,1.01453063e-16 3,0 Z" id="Rectangle" fill="#63D5FF"></path>
                        <path d="M1,17 L33,17 C33.5522847,17 34,17.4477153 34,18 L34,19 C34,19.5522847 33.5522847,20 33,20 L1,20 C0.44771525,20 6.76353751e-17,19.5522847 0,19 L0,18 C-6.76353751e-17,17.4477153 0.44771525,17 1,17 Z" id="Rectangle" fill="#63D5FF"></path>
                        <path d="M27,3.96134422 C27,2.87967964 26.0919766,2 24.9754601,2 L9.02453988,2 C7.90802337,2 7,2.87967964 7,3.96134422 L7,6 L27,6 L27,3.96134422 Z M9.70510695,4.02740016 C9.70510695,4.52095186 9.28998931,4.91847066 8.78053513,4.91847066 C8.27126514,4.91847066 7.85614751,4.51631084 7.86075382,4.02275919 C7.86554432,3.52920748 8.27587146,3.1272262 8.78532564,3.13168869 L8.79011614,3.13168869 C9.29477982,3.13168869 9.70989745,3.52920748 9.70510695,4.02740016 Z M12.1642951,4.02718466 C12.1642951,4.52073626 11.7491776,4.91825496 11.2397235,4.91825496 L11.2351172,4.91825496 C10.7256631,4.91379248 10.3153361,4.51163276 10.3199424,4.01808122 C10.3247329,3.52917064 10.7350599,3.13611437 11.2397235,3.13165189 L11.244514,3.13165189 C11.7539681,3.13165189 12.1642951,3.53381165 12.1642951,4.02718466 Z M14.6234833,4.02745114 C14.6234833,4.5208726 14.2085092,4.91860893 13.6990051,4.91860893 L13.6942141,4.91860893 C13.18471,4.91396746 12.7743427,4.51176826 12.7791337,4.0181682 C12.7837404,3.52920967 13.194292,3.13629336 13.6990051,3.13165189 L13.7036119,3.13165189 C14.2131159,3.13165189 14.6234833,3.53385109 14.6234833,4.02745114 Z" id="Shape" fill="#FFFFFF" fill-rule="nonzero"></path>
                        <path d="M27,7.33333333 L27,16.605 C27,17.3754372 26.3754372,18 25.605,18 L8.395,18 C7.62456277,18 7,17.3754372 7,16.605 L7,7.33333333 L27,7.33333333 Z M22.0874365,8.66666667 L21.209582,8.66666667 C21.1484398,8.66666667 20.7486065,9.76653893 20.7486065,9.76653893 L20.2602096,9.96902746 C20.2602096,9.96902746 19.177436,9.49895129 19.1359334,9.54096292 L18.5148764,10.1620539 C18.4718915,10.2048225 18.9662173,11.265711 18.9662173,11.265711 L18.7642627,11.7550898 C18.7642627,11.7550898 17.6666667,12.1869392 17.6666667,12.2452256 L17.6666667,13.1240636 C17.6666667,13.1853779 18.7668566,13.5854347 18.7668566,13.5854347 L18.9688113,14.0740566 C18.9688113,14.0740566 18.4989424,15.1561401 18.5400744,15.1977733 L19.1618725,15.8196212 C19.2041163,15.8616328 20.2650269,15.3673337 20.2650269,15.3673337 L20.7545355,15.5698223 C20.7545355,15.5698223 21.1866073,16.6666667 21.2462673,16.6666667 L22.1241218,16.6666667 C22.1848935,16.6666667 22.5850973,15.5667944 22.5850973,15.5667944 L23.0749764,15.3643059 C23.0749764,15.3643059 24.1555267,15.834382 24.1973998,15.7931274 L24.819198,15.1720364 C24.8625534,15.1285108 24.3671159,14.0683793 24.3671159,14.0683793 L24.5687,13.5790005 C24.5687,13.5790005 25.6666667,13.1463942 25.6666667,13.0873508 L25.6666667,12.2092697 C25.6670371,12.1483339 24.5672178,11.7494126 24.5672178,11.7494126 L24.3652631,11.2592768 C24.3652631,11.2592768 24.835132,10.1764363 24.7936294,10.1348031 L24.1714607,9.5144691 C24.1284758,9.47170049 23.0679358,9.96599959 23.0679358,9.96599959 L22.5787978,9.76426803 C22.5787978,9.76426803 22.1467259,8.66666667 22.0874365,8.66666667 Z M12.3333333,14 L8.33333333,14 L8.33333333,15.3333333 L12.3333333,15.3333333 L12.3333333,14 Z M21.6668519,11.3853117 C22.3742492,11.3856902 22.9493569,11.9598492 22.9493569,12.6664774 C22.9493569,13.3731056 22.3738786,13.9484001 21.6668519,13.9484001 C20.9605663,13.9484001 20.3843469,13.3731056 20.3843469,12.6664774 C20.3843469,11.9598492 20.9605663,11.3853117 21.6668519,11.3853117 Z M15,11.3333333 L8.33333333,11.3333333 L8.33333333,12.6666667 L15,12.6666667 L15,11.3333333 Z M16.3333333,8.66666667 L8.33333333,8.66666667 L8.33333333,10 L16.3333333,10 L16.3333333,8.66666667 Z" id="Combined-Shape" fill="#FFFFFF"></path>
                    </g>
                </g>
            </g>
        </g>
    </g>
</svg>