<?xml version="1.0" encoding="UTF-8"?>
<svg width="50px" height="50px" viewBox="0 0 50 50" version="1.1" xmlns="http://www.w3.org/2000/svg" xmlns:xlink="http://www.w3.org/1999/xlink">
    <!-- Generator: Sketch 63.1 (92452) - https://sketch.com -->
    <title>App Dev</title>
    <desc>Created with Sketch.</desc>
    <defs>
        <filter x="-16.7%" y="-11.5%" width="133.3%" height="123.1%" filterUnits="objectBoundingBox" id="filter-1">
            <feGaussianBlur stdDeviation="1" in="SourceGraphic"></feGaussianBlur>
        </filter>
    </defs>
    <g id="Simform-Website" stroke="none" stroke-width="1" fill="none" fill-rule="evenodd">
        <g id="Homepage-menu-" transform="translate(-623.000000, -229.000000)">
            <g id="Group" transform="translate(168.000000, 68.000000)">
                <g id="App-Dev" transform="translate(455.000000, 161.000000)">
                    <circle id="Oval" fill="#EEECD6" cx="25" cy="25" r="25"></circle>
                    <g id="Application-Development-Services" transform="translate(8.000000, 12.000000)">
                        <path d="M9,2 L25,2 C25.5522847,2 26,2.44771525 26,3 L26,27 C26,27.5522847 25.5522847,28 25,28 L9,28 C8.44771525,28 8,27.5522847 8,27 L8,3 C8,2.44771525 8.44771525,2 9,2 Z" id="Rectangle" fill-opacity="0.498880026" fill="#C5C29A" filter="url(#filter-1)"></path>
                        <path d="M9,0 L25,0 C25.5522847,-1.01453063e-16 26,0.44771525 26,1 L26,25 C26,25.5522847 25.5522847,26 25,26 L9,26 C8.44771525,26 8,25.5522847 8,25 L8,1 C8,0.44771525 8.44771525,1.01453063e-16 9,0 Z" id="Rectangle" fill="#C5C29A"></path>
                        <path d="M12.9385334,7.78014855 L12.5598683,6.86114397 C12.5598683,6.86114397 13.4408725,4.830818 13.3630551,4.75275583 L12.1964888,3.58962956 C12.1158922,3.50943843 10.1273796,4.43624923 10.1273796,4.43624923 L9.21024585,4.05800255 C9.21024585,4.05800255 8.40011107,2 8.28894335,2 L6.64296625,2 C6.52832453,2 5.7786372,4.06226049 5.7786372,4.06226049 L4.86289308,4.44192648 C4.86289308,4.44192648 2.83269254,3.56053366 2.75487514,3.63930548 L1.59039324,4.80385107 C1.50979664,4.8840422 2.43665753,6.87320812 2.43665753,6.87320812 L2.05799247,7.7907934 C2.05799247,7.7907934 0,8.60051095 0,8.70979798 L0,10.3576193 C0,10.4725836 2.06285606,11.2226901 2.06285606,11.2226901 L2.44152112,12.138856 C2.44152112,12.138856 1.56051691,14.1677627 1.63763952,14.2458249 L2.80351101,15.4117898 C2.88271802,15.4905616 4.87192546,14.5637508 4.87192546,14.5637508 L5.78975397,14.9434168 C5.78975397,14.9434168 6.59988876,17 6.71175128,17 L8.35772838,17 C8.47167529,17 9.22205742,14.9377395 9.22205742,14.9377395 L10.1405807,14.5580735 C10.1405807,14.5580735 12.1666125,15.4394663 12.2451247,15.3621138 L13.4109962,14.1975682 C13.4922876,14.1159578 12.5633423,12.1282112 12.5633423,12.1282112 L12.9413126,11.2106259 C12.9413126,11.2106259 15,10.399489 15,10.2887827 L15,8.64238066 C15.0006946,8.52812603 12.9385334,7.78014855 12.9385334,7.78014855 Z M9.90504412,9.49964517 C9.90504412,10.824573 8.82602241,11.9032502 7.50034731,11.9032502 C6.17606181,11.9032502 5.0956505,10.824573 5.0956505,9.49964517 C5.0956505,8.17471732 6.17606181,7.09745943 7.50034731,7.09745943 C8.82671721,7.09816909 9.90504412,8.17471732 9.90504412,9.49964517 Z" id="Shape" fill="#FFFFFF" fill-rule="nonzero"></path>
                        <circle id="Oval" fill="#FFFFFF" cx="17.5" cy="21.5" r="1.5"></circle>
                    </g>
                </g>
            </g>
        </g>
    </g>
</svg>