<?xml version="1.0" encoding="UTF-8"?>
<svg width="50px" height="50px" viewBox="0 0 50 50" version="1.1" xmlns="http://www.w3.org/2000/svg" xmlns:xlink="http://www.w3.org/1999/xlink">
    <!-- Generator: Sketch 63.1 (92452) - https://sketch.com -->
    <title>Enterprise Mob</title>
    <desc>Created with Sketch.</desc>
    <defs>
        <filter x="-16.7%" y="-11.5%" width="133.3%" height="123.1%" filterUnits="objectBoundingBox" id="filter-1">
            <feGaussianBlur stdDeviation="1" in="SourceGraphic"></feGaussianBlur>
        </filter>
    </defs>
    <g id="Simform-Website" stroke="none" stroke-width="1" fill="none" fill-rule="evenodd">
        <g id="Homepage-menu-" transform="translate(-623.000000, -108.000000)">
            <g id="Group" transform="translate(168.000000, 68.000000)">
                <g id="Enterprise-Mob" transform="translate(455.000000, 40.000000)">
                    <circle id="Oval" fill="#C7DAFF" cx="25" cy="25" r="25"></circle>
                    <g id="Enterprise-mobile-application-development" transform="translate(15.000000, 11.000000)">
                        <path d="M1.93264249,2.65803109 L17.9326425,2.65803109 C18.4849272,2.65803109 18.9326425,3.10574634 18.9326425,3.65803109 L18.9326425,27.6580311 C18.9326425,28.2103158 18.4849272,28.6580311 17.9326425,28.6580311 L1.93264249,28.6580311 C1.38035774,28.6580311 0.932642487,28.2103158 0.932642487,27.6580311 L0.932642487,3.65803109 C0.932642487,3.10574634 1.38035774,2.65803109 1.93264249,2.65803109 Z" id="Rectangle" fill-opacity="0.499644886" fill="#749BED" filter="url(#filter-1)"></path>
                        <path d="M1.93264249,0.658031088 L17.9326425,0.658031088 C18.4849272,0.658031088 18.9326425,1.10574634 18.9326425,1.65803109 L18.9326425,25.6580311 C18.9326425,26.2103158 18.4849272,26.6580311 17.9326425,26.6580311 L1.93264249,26.6580311 C1.38035774,26.6580311 0.932642487,26.2103158 0.932642487,25.6580311 L0.932642487,1.65803109 C0.932642487,1.10574634 1.38035774,0.658031088 1.93264249,0.658031088 Z" id="Rectangle" fill="#749BED"></path>
                        <circle id="Oval" fill="#FFFFFF" cx="10.4326425" cy="23.1580311" r="1.5"></circle>
                        <path d="M26.3434943,9.57157001 C25.9060884,9.0767168 25.3511561,8.75835701 24.6793816,8.61636625 C24.8930907,8.31803143 24.9996443,7.99133827 24.9996443,7.63628675 C24.9996443,7.13436883 24.8042961,6.70590898 24.4138186,6.35075796 C24.023259,5.99573132 23.5519223,5.81814337 22.9998085,5.81814337 C22.4998495,5.81814337 22.0675058,5.96493515 21.703051,6.2585187 C21.3958955,5.58617705 20.9074566,5.04167185 20.2383089,4.62500311 C19.5689971,4.20843387 18.8228485,4 17.9999179,4 C16.8958271,4 15.9530716,4.35520077 15.1718156,5.06542819 C14.3905049,5.77548147 13.9999726,6.63257529 13.9999726,7.63636137 C13.9999726,7.7074065 14.0051991,7.80912343 14.0155972,7.94171115 C13.4114653,8.19740894 12.9244493,8.58445067 12.554686,9.10306021 C12.1849501,9.62137125 12,10.1932149 12,10.818218 C12,11.6941179 12.3425092,12.4434251 13.0273362,13.0659655 C13.7121905,13.68868 14.5364345,14 15.499959,14 L24.0000547,14 C24.8280476,14 25.535039,13.7334564 26.1210562,13.2009662 C26.7069914,12.6683267 27,12.0256121 27,11.2727227 C27,10.6335653 26.7810644,10.066274 26.3434943,9.57157001 Z" id="Path" fill="#FFFFFF"></path>
                    </g>
                </g>
            </g>
        </g>
    </g>
</svg>