<?xml version="1.0" encoding="UTF-8"?>
<svg width="50px" height="50px" viewBox="0 0 50 50" version="1.1" xmlns="http://www.w3.org/2000/svg" xmlns:xlink="http://www.w3.org/1999/xlink">
    <!-- Generator: Sketch 63.1 (92452) - https://sketch.com -->
    <title>Software Test</title>
    <desc>Created with Sketch.</desc>
    <defs>
        <filter x="-8.8%" y="-15.0%" width="117.6%" height="130.0%" filterUnits="objectBoundingBox" id="filter-1">
            <feGaussianBlur stdDeviation="1" in="SourceGraphic"></feGaussianBlur>
        </filter>
    </defs>
    <g id="Simform-Website" stroke="none" stroke-width="1" fill="none" fill-rule="evenodd">
        <g id="Homepage-menu-" transform="translate(-413.000000, -108.000000)">
            <g id="Group" transform="translate(168.000000, 68.000000)">
                <g id="Software-Test" transform="translate(245.000000, 40.000000)">
                    <circle id="Oval" fill="#FFF1D6" cx="25" cy="25" r="25"></circle>
                    <g id="Group" opacity="0.7" transform="translate(8.000000, 15.000000)">
                        <path d="M1,22 C0.44771525,22 -4.26258006e-13,21.5522847 -4.26325641e-13,21 L-4.26325641e-13,20 C-4.26393277e-13,19.4477153 0.44771525,19 1,19 L2,19 L2,3 C2,2.44771525 2.44771525,2 3,2 L31,2 C31.5522847,2 32,2.44771525 32,3 L32,19 L33,19 C33.5522847,19 34,19.4477153 34,20 L34,21 C34,21.5522847 33.5522847,22 33,22 L1,22 Z" id="Combined-Shape" fill-opacity="0.499918051" fill="#F7D595" filter="url(#filter-1)"></path>
                        <path d="M3,0 L31,0 C31.5522847,-1.01453063e-16 32,0.44771525 32,1 L32,19 C32,19.5522847 31.5522847,20 31,20 L3,20 C2.44771525,20 2,19.5522847 2,19 L2,1 C2,0.44771525 2.44771525,1.01453063e-16 3,0 Z" id="Rectangle" fill="#F3CA7A"></path>
                        <path d="M1,17 L33,17 C33.5522847,17 34,17.4477153 34,18 L34,19 C34,19.5522847 33.5522847,20 33,20 L1,20 C0.44771525,20 6.76353751e-17,19.5522847 0,19 L0,18 C-6.76353751e-17,17.4477153 0.44771525,17 1,17 Z" id="Rectangle" fill="#F3CA7A"></path>
                    </g>
                    <g id="Software-Testing-&amp;-QA-services-team" transform="translate(14.000000, 17.000000)">
                        <polygon id="Rectangle" fill="#FFFFFF" points="-3.60600438e-13 8 22 8 22 14 -3.60600438e-13 14"></polygon>
                        <rect id="Rectangle" fill="#FFFFFF" x="0" y="1" width="22" height="5"></rect>
                        <circle id="Oval" fill="#F7D595" cx="10.5" cy="6" r="4.5"></circle>
                        <path d="M10.7558327,-1 C12.6214033,-1 14.3103657,-0.24382206 15.5329338,0.978757861 C16.7554936,2.20132958 17.5116654,3.89029724 17.5116654,5.75588865 C17.5116654,6.83169953 17.2594248,7.84831841 16.8117871,8.75093722 L16.8117871,8.75093722 L19.3645217,11.295781 C19.7881706,11.7194818 20,12.2747936 20,12.830108 C20,13.3854224 19.7881706,13.9407343 19.3643918,14.3645649 C18.9406626,14.7881904 18.3853536,15 17.8300591,15 C17.2747333,15 16.7194242,14.788169 16.2956817,14.3644784 L16.2956817,14.3644784 L13.7694345,11.8382311 C12.845823,12.2596984 11.8301468,12.5116654 10.7557768,12.5116654 C8.89021933,12.5116654 7.20128276,11.7554845 5.97873122,10.5329211 C4.75616694,9.31034493 4,7.62137696 4,5.75583272 C4,3.8902668 4.75617442,2.20130814 5.97874128,0.97874128 C7.20130814,-0.243825584 8.8902668,-1 10.7558327,-1 Z M10.7558327,2.99530985 C9.99353834,2.99530985 9.30340295,3.30429015 8.80384329,3.80384981 C8.3042908,4.3034023 7.99530985,4.99352903 7.99530985,5.75583272 C7.99530985,6.5181182 8.30428434,7.20823614 8.80383696,7.70778133 C9.30339175,8.2073287 9.99352423,8.51629966 10.7558327,8.51629966 C11.5181025,8.51629966 12.208222,8.20731789 12.7077732,7.70776669 C13.2073172,7.20822267 13.5162997,6.51811177 13.5162997,5.75583272 C13.5162997,4.99354476 13.2073114,4.30341643 12.7077604,3.80385793 C12.2082115,3.30430161 11.5180977,2.99530985 10.7558327,2.99530985 Z" id="Shape" stroke="#F7D595" stroke-width="2" fill="#FFFFFF" fill-rule="nonzero"></path>
                        <path d="M12.7749105,5.33823321 L10.3930035,7.76888997 C10.2430238,7.92274557 10.0456654,8 9.84814684,8 C9.65478996,8 9.46079283,7.92568546 9.31145346,7.77672974 L8.23134398,6.70023069 C7.92786331,6.39774605 7.92226112,5.90122699 8.21869898,5.59139258 C8.51529689,5.28172148 9.00173031,5.27600497 9.30521097,5.57865297 L9.8420644,6.11371754 L11.6885586,4.22955838 C11.9885178,3.92348054 12.4751113,3.92348054 12.7749105,4.22955838 C13.0750298,4.53579959 13.0750298,5.03215533 12.7749105,5.33823321 L12.7749105,5.33823321 Z" id="Path" fill="#FFFFFF"></path>
                    </g>
                </g>
            </g>
        </g>
    </g>
</svg>