<?xml version="1.0" encoding="UTF-8"?>
<svg width="50px" height="50px" viewBox="0 0 50 50" version="1.1" xmlns="http://www.w3.org/2000/svg" xmlns:xlink="http://www.w3.org/1999/xlink">
    <!-- Generator: Sketch 63.1 (92452) - https://sketch.com -->
    <title>Product Dev</title>
    <desc>Created with Sketch.</desc>
    <defs>
        <filter x="-8.8%" y="-15.0%" width="117.6%" height="130.0%" filterUnits="objectBoundingBox" id="filter-1">
            <feGaussianBlur stdDeviation="1" in="SourceGraphic"></feGaussianBlur>
        </filter>
    </defs>
    <g id="Simform-Website" stroke="none" stroke-width="1" fill="none" fill-rule="evenodd">
        <g id="Homepage-menu-" transform="translate(-203.000000, -229.000000)">
            <g id="Group" transform="translate(168.000000, 68.000000)">
                <g id="Product-Dev" transform="translate(35.000000, 161.000000)">
                    <circle id="Oval" fill="#EDD5FF" cx="25" cy="25" r="25"></circle>
                    <g id="Product-Development-Services" transform="translate(7.000000, 15.000000)">
                        <path d="M1,22 C0.44771525,22 1.42784901e-14,21.5522847 1.42108547e-14,21 L1.42108547e-14,20 C1.41432193e-14,19.4477153 0.44771525,19 1,19 L2,19 L2,3 C2,2.44771525 2.44771525,2 3,2 L31,2 C31.5522847,2 32,2.44771525 32,3 L32,19 L33,19 C33.5522847,19 34,19.4477153 34,20 L34,21 C34,21.5522847 33.5522847,22 33,22 L1,22 Z" id="Combined-Shape" fill-opacity="0.500054633" fill="#CCA0EE" filter="url(#filter-1)"></path>
                        <path d="M4,0 L32,0 C32.5522847,-1.01453063e-16 33,0.44771525 33,1 L33,19 C33,19.5522847 32.5522847,20 32,20 L4,20 C3.44771525,20 3,19.5522847 3,19 L3,1 C3,0.44771525 3.44771525,1.01453063e-16 4,0 Z" id="Rectangle" fill="#CCA0EE"></path>
                        <path d="M2,17 L34,17 C34.5522847,17 35,17.4477153 35,18 L35,19 C35,19.5522847 34.5522847,20 34,20 L2,20 C1.44771525,20 1,19.5522847 1,19 L1,18 C1,17.4477153 1.44771525,17 2,17 Z" id="Rectangle" fill="#CCA0EE"></path>
                        <path d="M22.5897245,6.69201965 C22.491225,6.63312247 23.3316093,7.15189476 18.4458031,4.12343229 C18.1809712,3.95934939 17.8491397,3.95878144 17.5837523,4.12218278 L13.4133866,6.69020219 C13.1592213,6.8419604 13,7.12383766 13,7.42616139 L13,12.5745249 C13,12.8727593 13.1526658,13.1493546 13.4023867,13.3036118 L17.5690302,15.8778219 C17.8373065,16.0437223 18.1724713,16.0377019 18.4310254,15.8778219 L22.5976689,13.3036118 C22.8473897,13.1493546 23,12.8727593 23,12.5744681 L23,7.4261046 C23,6.91687399 22.5951689,6.69769922 22.5897245,6.69201965 Z M17.1666991,13.6384227 L14.666713,12.0939193 L14.666713,8.93636013 L17.1666991,10.4808635 L17.1666991,13.6384227 Z M18.0000278,9.00491259 L15.446542,7.4273541 L18.012361,5.8473534 L20.557458,7.42491188 L18.0000278,9.00491259 Z M21.3333426,12.0939193 L18.8333565,13.6384227 L18.8333565,10.4808635 L21.3333426,8.93636013 L21.3333426,12.0939193 Z" id="Shape" fill="#FFFFFF" fill-rule="nonzero"></path>
                    </g>
                </g>
            </g>
        </g>
    </g>
</svg>