<?xml version="1.0" encoding="UTF-8"?>
<svg width="50px" height="50px" viewBox="0 0 50 50" version="1.1" xmlns="http://www.w3.org/2000/svg" xmlns:xlink="http://www.w3.org/1999/xlink">
    <!-- Generator: Sketch 63.1 (92452) - https://sketch.com -->
    <title>Web App</title>
    <desc>Created with Sketch.</desc>
    <defs>
        <filter x="-8.8%" y="-15.0%" width="117.6%" height="130.0%" filterUnits="objectBoundingBox" id="filter-1">
            <feGaussianBlur stdDeviation="1" in="SourceGraphic"></feGaussianBlur>
        </filter>
    </defs>
    <g id="Simform-Website" stroke="none" stroke-width="1" fill="none" fill-rule="evenodd">
        <g id="Homepage-menu-" transform="translate(-1043.000000, -108.000000)">
            <g id="Group" transform="translate(168.000000, 68.000000)">
                <g id="Web-App" transform="translate(875.000000, 40.000000)">
                    <circle id="Oval" fill="#BAF9F6" cx="25" cy="25" r="25"></circle>
                    <g id="Group-48" transform="translate(8.000000, 15.000000)">
                        <path d="M1,22 C0.44771525,22 -4.26258006e-13,21.5522847 -4.26325641e-13,21 L-4.26325641e-13,20 C-4.26393277e-13,19.4477153 0.44771525,19 1,19 L2,19 L2,3 C2,2.44771525 2.44771525,2 3,2 L31,2 C31.5522847,2 32,2.44771525 32,3 L32,19 L33,19 C33.5522847,19 34,19.4477153 34,20 L34,21 C34,21.5522847 33.5522847,22 33,22 L1,22 Z" id="Combined-Shape" fill-opacity="0.502786276" fill="#77D0CB" filter="url(#filter-1)"></path>
                        <path d="M3,0 L31,0 C31.5522847,-1.01453063e-16 32,0.44771525 32,1 L32,19 C32,19.5522847 31.5522847,20 31,20 L3,20 C2.44771525,20 2,19.5522847 2,19 L2,1 C2,0.44771525 2.44771525,1.01453063e-16 3,0 Z" id="Rectangle" fill="#77D0CB"></path>
                        <path d="M1,17 L33,17 C33.5522847,17 34,17.4477153 34,18 L34,19 C34,19.5522847 33.5522847,20 33,20 L1,20 C0.44771525,20 6.76353751e-17,19.5522847 0,19 L0,18 C-6.76353751e-17,17.4477153 0.44771525,17 1,17 Z" id="Rectangle" fill="#77D0CB"></path>
                        <path d="M23.9682797,4.5277099 C23.9682797,3.69640878 23.2887023,3.02034089 22.4530857,3.02034089 L10.515194,3.02034089 C9.67957739,3.02034089 9,3.69640878 9,4.5277099 L9,6.09449583 L23.9682797,6.09449583 L23.9682797,4.5277099 Z M11.0245399,4.57847645 C11.0245399,4.95779005 10.71386,5.26329864 10.3325774,5.26329864 C9.95143261,5.26329864 9.64075277,4.95422325 9.6442002,4.57490968 C9.64778548,4.19559608 9.95488004,3.8866579 10.3361627,3.89008749 L10.339748,3.89008749 C10.7174453,3.89008749 11.0281251,4.19559608 11.0245399,4.57847645 Z M12.8650307,4.57831083 C12.8650307,4.95762435 12.5543509,5.26313287 12.1730684,5.26313287 L12.1696209,5.26313287 C11.7883384,5.25970328 11.4812439,4.95062796 11.4846913,4.57131448 C11.4882766,4.19556776 11.7953711,3.89348879 12.1730684,3.8900592 L12.1766536,3.8900592 C12.5579362,3.8900592 12.8650307,4.19913456 12.8650307,4.57831083 Z M14.7055215,4.57851563 C14.7055215,4.95772913 14.3949491,5.26340491 14.0136291,5.26340491 L14.0100434,5.26340491 C13.6287235,5.25983776 13.3215988,4.95073209 13.3251845,4.57138133 C13.3286322,4.19559776 13.6358947,3.89362635 14.0136291,3.8900592 L14.0170768,3.8900592 C14.3983968,3.8900592 14.7055215,4.19916487 14.7055215,4.57851563 Z" id="Shape" fill="#FFFFFF" fill-rule="nonzero"></path>
                        <path d="M9,6.70774648 L24,6.70774648 L24,13.605 C24,14.3754372 23.3754372,15 22.605,15 L10.395,15 C9.62456277,15 9,14.3754372 9,13.605 L9,6.70774648 L9,6.70774648 Z" id="Rectangle" fill="#FFFFFF"></path>
                    </g>
                </g>
            </g>
        </g>
    </g>
</svg>