<?xml version="1.0" encoding="UTF-8"?>
<svg width="50px" height="50px" viewBox="0 0 50 50" version="1.1" xmlns="http://www.w3.org/2000/svg" xmlns:xlink="http://www.w3.org/1999/xlink">
    <!-- Generator: Sketch 53.2 (72643) - https://sketchapp.com -->
    <title>API integration Services</title>
    <desc>Created with Sketch.</desc>
    <defs>
        <linearGradient x1="75.4765625%" y1="91.8652344%" x2="23.3007812%" y2="9.76367188%" id="linearGradient-1">
            <stop stop-color="#B4B2B2" offset="0%"></stop>
            <stop stop-color="#E3E3E3" offset="100%"></stop>
        </linearGradient>
        <filter x="-8.7%" y="-15.3%" width="117.5%" height="130.6%" filterUnits="objectBoundingBox" id="filter-2">
            <feGaussianBlur stdDeviation="1" in="SourceGraphic"></feGaussianBlur>
        </filter>
    </defs>
    <g id="Page-1" stroke="none" stroke-width="1" fill="none" fill-rule="evenodd">
        <g id="Icons-V2-Copy" transform="translate(-519.000000, -170.000000)">
            <g id="API-integration-Services" transform="translate(519.000000, 170.000000)">
                <g>
                    <circle id="Oval" fill="url(#linearGradient-1)" cx="25" cy="25" r="25"></circle>
                    <path d="M40.342377,33.66 L41.32,33.66 C41.8722847,33.66 42.32,34.1077153 42.32,34.66 L42.32,35.6 C42.32,36.1522847 41.8722847,36.6 41.32,36.6 L9,36.6 C8.44771525,36.6 8,36.1522847 8,35.6 L8,34.66 C8,34.1077153 8.44771525,33.66 9,33.66 L10.060024,33.66 L10.060024,18 C10.060024,17.4477153 10.5077393,17 11.060024,17 L39.342377,17 C39.8946617,17 40.342377,17.4477153 40.342377,18 L40.342377,33.66 Z" id="Combined-Shape" fill="#A1A1A1" filter="url(#filter-2)"></path>
                    <g id="Group-13" transform="translate(8.000000, 15.000000)">
                        <path d="M3,0 L31,0 C31.5522847,-1.01453063e-16 32,0.44771525 32,1 L32,19 C32,19.5522847 31.5522847,20 31,20 L3,20 C2.44771525,20 2,19.5522847 2,19 L2,1 C2,0.44771525 2.44771525,1.01453063e-16 3,0 Z" id="Rectangle" fill="#FFFFFF"></path>
                        <path d="M1,17 L33,17 C33.5522847,17 34,17.4477153 34,18 L34,19 C34,19.5522847 33.5522847,20 33,20 L1,20 C0.44771525,20 6.76353751e-17,19.5522847 0,19 L0,18 C-6.76353751e-17,17.4477153 0.44771525,17 1,17 Z" id="Rectangle" fill="#FFFFFF"></path>
                        <g id="api" transform="translate(8.000000, 6.000000)" fill="#B0ADAD">
                            <path d="M3.50003607,0 C1.57015347,0 0,1.34992595 0,3.00912594 L0,7.0695727 C0,7.58341668 0.484544902,8 1.08221762,8 C1.67989034,8 2.16443524,7.58341668 2.16443524,7.0695727 L2.16443524,5.30579269 L4.83556476,5.30579269 L4.83556476,7.0695727 C4.83556476,7.58341668 5.32010966,8 5.91778238,8 C6.5154551,8 7,7.58341668 7,7.0695727 L7,3.00912594 C7.00007215,1.34992595 5.42991868,0 3.50003607,0 Z M4.83563691,3.44500012 L2.16450738,3.44500012 L2.16450738,3.00918797 L2.16443524,3.00918797 C2.16443524,2.37600118 2.76362306,1.86091663 3.50003607,1.86091663 C4.23644909,1.86091663 4.83563691,2.37600118 4.83563691,3.00918797 L4.83563691,3.44500012 Z" id="Shape" fill-rule="nonzero"></path>
                            <path d="M11.9143004,0 L9.08219531,0 C8.48453491,0 8,0.416583316 8,0.930427299 L8,7.0695727 C8,7.58341668 8.48453491,8 9.08219531,8 C9.67985571,8 10.1643906,7.58341668 10.1643906,7.0695727 L10.1643906,5.30579269 L11.9143004,5.30579269 C13.6157279,5.30579269 15,4.11565211 15,2.65283431 C15,1.19007854 13.6157279,0 11.9143004,0 Z M11.9143004,3.44500012 L10.1643906,3.44500012 L10.1643906,1.86091663 L11.9143004,1.86091663 C12.4222829,1.86091663 12.8356094,2.21627783 12.8356094,2.6530204 C12.8356094,3.089825 12.4222829,3.44500012 11.9143004,3.44500012 Z" id="Shape" fill-rule="nonzero"></path>
                            <path d="M17,0 C16.4477333,0 16,0.416583316 16,0.930427299 L16,7.0695727 C16,7.58341668 16.4477333,8 17,8 C17.5522667,8 18,7.58341668 18,7.0695727 L18,0.930427299 C18,0.416583316 17.5522667,0 17,0 Z" id="Path"></path>
                        </g>
                    </g>
                </g>
            </g>
        </g>
    </g>
</svg>