<?xml version="1.0" encoding="UTF-8"?>
<svg width="50px" height="50px" viewBox="0 0 50 50" version="1.1" xmlns="http://www.w3.org/2000/svg" xmlns:xlink="http://www.w3.org/1999/xlink">
    <!-- Generator: Sketch 53.2 (72643) - https://sketchapp.com -->
    <title>Custom Software Development</title>
    <desc>Created with Sketch.</desc>
    <defs>
        <linearGradient x1="75.4765625%" y1="91.8652344%" x2="23.3007812%" y2="9.76367188%" id="linearGradient-1">
            <stop stop-color="#F6B684" offset="0%"></stop>
            <stop stop-color="#FFEFCB" offset="100%"></stop>
        </linearGradient>
        <linearGradient x1="74.1453072%" y1="89.7704284%" x2="23.3007813%" y2="9.76367188%" id="linearGradient-2">
            <stop stop-color="#EEBB97" offset="0%"></stop>
            <stop stop-color="#FDE8DA" offset="100%"></stop>
        </linearGradient>
        <filter x="-8.7%" y="-15.3%" width="117.5%" height="130.6%" filterUnits="objectBoundingBox" id="filter-3">
            <feGaussianBlur stdDeviation="1" in="SourceGraphic"></feGaussianBlur>
        </filter>
    </defs>
    <g id="Page-1" stroke="none" stroke-width="1" fill="none" fill-rule="evenodd">
        <g id="Icons-V2-Copy" transform="translate(-38.000000, -170.000000)">
            <g id="Custom-Software-Development" transform="translate(38.000000, 170.000000)">
                <circle id="Oval" fill="url(#linearGradient-2)" cx="25" cy="25" r="25"></circle>
                <path d="M40.342377,33.66 L41.32,33.66 C41.8722847,33.66 42.32,34.1077153 42.32,34.66 L42.32,35.6 C42.32,36.1522847 41.8722847,36.6 41.32,36.6 L9,36.6 C8.44771525,36.6 8,36.1522847 8,35.6 L8,34.66 C8,34.1077153 8.44771525,33.66 9,33.66 L10.060024,33.66 L10.060024,18 C10.060024,17.4477153 10.5077393,17 11.060024,17 L39.342377,17 C39.8946617,17 40.342377,17.4477153 40.342377,18 L40.342377,33.66 Z" id="Combined-Shape" fill="#F6B684" filter="url(#filter-3)"></path>
                <g id="Group" transform="translate(8.000000, 15.000000)" fill="#FFFFFF">
                    <path d="M3,0 L31,0 C31.5522847,-1.01453063e-16 32,0.44771525 32,1 L32,19 C32,19.5522847 31.5522847,20 31,20 L3,20 C2.44771525,20 2,19.5522847 2,19 L2,1 C2,0.44771525 2.44771525,1.01453063e-16 3,0 Z" id="Rectangle"></path>
                    <path d="M1,17 L33,17 C33.5522847,17 34,17.4477153 34,18 L34,19 C34,19.5522847 33.5522847,20 33,20 L1,20 C0.44771525,20 -4.40468861e-13,19.5522847 -4.40536496e-13,19 L-4.40536496e-13,18 C-4.40604132e-13,17.4477153 0.44771525,17 1,17 Z" id="Rectangle"></path>
                </g>
                <g id="code" transform="translate(18.000000, 20.000000)" fill="#F78761" opacity="0.70421782">
                    <path d="M6.25379183,3.94270096 L1.92044221,0.276103039 C1.42860081,-0.14011704 0.692326322,-0.0788155678 0.27609001,0.413112703 C-0.140146303,0.905040974 -0.0787755109,1.64118358 0.413124221,2.05740366 L3.69389475,4.8334096 L0.413124221,7.60935722 C-0.0787755109,8.02557729 -0.140087966,8.7617199 0.27609001,9.25364817 C0.693318055,9.74662632 1.42976756,9.80582803 1.92044221,9.39059951 L6.25379183,5.72400158 C6.80507888,5.25756212 6.80350378,4.40785723 6.25379183,3.94270096 Z" id="Path"></path>
                    <path d="M13.8204675,7.33333333 L8.51286588,7.33333333 C7.86141005,7.33333333 7.33333333,7.85562999 7.33333333,8.5 C7.33333333,9.14437001 7.86141005,9.66666667 8.51286588,9.66666667 L13.8204675,9.66666667 C14.4718643,9.66666667 15,9.14437001 15,8.5 C15,7.85562999 14.4719233,7.33333333 13.8204675,7.33333333 Z" id="Path"></path>
                </g>
            </g>
        </g>
    </g>
</svg>