<?xml version="1.0" encoding="UTF-8"?>
<svg width="50px" height="50px" viewBox="0 0 50 50" version="1.1" xmlns="http://www.w3.org/2000/svg" xmlns:xlink="http://www.w3.org/1999/xlink">
    <!-- Generator: Sketch 53.2 (72643) - https://sketchapp.com -->
    <title>Dedicated software development Team</title>
    <desc>Created with Sketch.</desc>
    <defs>
        <linearGradient x1="75.4765625%" y1="91.8652344%" x2="23.3007812%" y2="9.76367188%" id="linearGradient-1">
            <stop stop-color="#F6B684" offset="0%"></stop>
            <stop stop-color="#FFEFCB" offset="100%"></stop>
        </linearGradient>
        <linearGradient x1="75.4765625%" y1="91.8652344%" x2="23.3007812%" y2="9.76367188%" id="linearGradient-2">
            <stop stop-color="#86D192" offset="0%"></stop>
            <stop stop-color="#D3FAD9" offset="100%"></stop>
        </linearGradient>
        <filter x="-8.7%" y="-15.3%" width="117.5%" height="130.6%" filterUnits="objectBoundingBox" id="filter-3">
            <feGaussianBlur stdDeviation="1" in="SourceGraphic"></feGaussianBlur>
        </filter>
    </defs>
    <g id="Page-1" stroke="none" stroke-width="1" fill="none" fill-rule="evenodd">
        <g id="Icons-V2-Copy" transform="translate(-359.000000, -170.000000)">
            <g id="Dedicated-software-development-Team" transform="translate(359.000000, 170.000000)">
                <g id="Dedicated-software-team">
                    <circle id="Oval" fill="url(#linearGradient-2)" cx="25" cy="25" r="25"></circle>
                    <path d="M40.342377,33.66 L41.32,33.66 C41.8722847,33.66 42.32,34.1077153 42.32,34.66 L42.32,35.6 C42.32,36.1522847 41.8722847,36.6 41.32,36.6 L9,36.6 C8.44771525,36.6 8,36.1522847 8,35.6 L8,34.66 C8,34.1077153 8.44771525,33.66 9,33.66 L10.060024,33.66 L10.060024,18 C10.060024,17.4477153 10.5077393,17 11.060024,17 L39.342377,17 C39.8946617,17 40.342377,17.4477153 40.342377,18 L40.342377,33.66 Z" id="Combined-Shape" fill="#7BCD87" filter="url(#filter-3)"></path>
                    <g id="Group-12" transform="translate(8.000000, 15.000000)">
                        <path d="M3,0 L31,0 C31.5522847,-1.01453063e-16 32,0.44771525 32,1 L32,19 C32,19.5522847 31.5522847,20 31,20 L3,20 C2.44771525,20 2,19.5522847 2,19 L2,1 C2,0.44771525 2.44771525,1.01453063e-16 3,0 Z" id="Rectangle" fill="#FFFFFF"></path>
                        <path d="M1,17 L33,17 C33.5522847,17 34,17.4477153 34,18 L34,19 C34,19.5522847 33.5522847,20 33,20 L1,20 C0.44771525,20 6.76353751e-17,19.5522847 0,19 L0,18 C-6.76353751e-17,17.4477153 0.44771525,17 1,17 Z" id="Rectangle" fill="#FFFFFF"></path>
                        <g id="Group-11" transform="translate(7.000000, 7.000000)" fill="#8DCC97">
                            <polygon id="Path" opacity="0.7" points="3.71809996 7 0 3.500111 3.71809996 0 5 1.20666689 2.56332851 3.500111 5 5.79355511"></polygon>
                            <polygon id="Path" opacity="0.7" points="17.2816642 7 16 5.79355511 18.4364356 3.500111 16 1.20666689 17.2816642 0 21 3.500111"></polygon>
                            <path d="M13,6.48526824 C13,5.11269249 11.8807119,4 10.5,4 C9.11928813,4 8,5.11269249 8,6.48526824 C8,7.17917283 13,7.16393941 13,6.48526824 Z" id="Oval" opacity="0.702473958"></path>
                            <circle id="Oval" opacity="0.702473958" cx="10.5" cy="1.5" r="1.5"></circle>
                        </g>
                    </g>
                </g>
            </g>
        </g>
    </g>
</svg>