<?xml version="1.0" encoding="UTF-8"?>
<svg width="50px" height="50px" viewBox="0 0 50 50" version="1.1" xmlns="http://www.w3.org/2000/svg" xmlns:xlink="http://www.w3.org/1999/xlink">
    <!-- Generator: Sketch 63.1 (92452) - https://sketch.com -->
    <title>Ecom Dev</title>
    <desc>Created with Sketch.</desc>
    <defs>
        <filter x="-8.8%" y="-15.0%" width="117.6%" height="130.0%" filterUnits="objectBoundingBox" id="filter-1">
            <feGaussianBlur stdDeviation="1" in="SourceGraphic"></feGaussianBlur>
        </filter>
    </defs>
    <g id="Simform-Website" stroke="none" stroke-width="1" fill="none" fill-rule="evenodd">
        <g id="Homepage-menu-" transform="translate(-203.000000, -349.000000)">
            <g id="Group" transform="translate(168.000000, 68.000000)">
                <g id="Ecom-Dev" transform="translate(35.000000, 281.000000)">
                    <circle id="Oval" fill="#FFC9CF" cx="25" cy="25" r="25"></circle>
                    <g id="Product-Development-Services" transform="translate(8.000000, 15.000000)">
                        <path d="M1,22 C0.44771525,22 -4.26258006e-13,21.5522847 -4.26325641e-13,21 L-4.26325641e-13,20 C-4.26393277e-13,19.4477153 0.44771525,19 1,19 L2,19 L2,3 C2,2.44771525 2.44771525,2 3,2 L31,2 C31.5522847,2 32,2.44771525 32,3 L32,19 L33,19 C33.5522847,19 34,19.4477153 34,20 L34,21 C34,21.5522847 33.5522847,22 33,22 L1,22 Z" id="Combined-Shape" fill-opacity="0.500136582" fill="#E59AA3" filter="url(#filter-1)"></path>
                        <path d="M3,0 L31,0 C31.5522847,-1.01453063e-16 32,0.44771525 32,1 L32,19 C32,19.5522847 31.5522847,20 31,20 L3,20 C2.44771525,20 2,19.5522847 2,19 L2,1 C2,0.44771525 2.44771525,1.01453063e-16 3,0 Z" id="Rectangle" fill="#E59AA3"></path>
                        <path d="M19.5,13 C20.3250072,13 21,13.6749928 21,14.5 C21,15.3250072 20.3250072,16 19.5,16 C18.6749928,16 18,15.3250072 18,14.5 C18,13.6749928 18.6749928,13 19.5,13 Z M13.5,13 C14.3250072,13 15,13.6749928 15,14.5 C15,15.3250072 14.3250072,16 13.5,16 C12.6749928,16 12,15.3250072 12,14.5 C12,13.6749928 12.6749928,13 13.5,13 Z M11.0916322,4 C11.3186219,4 11.5132111,4.14663907 11.5618429,4.37473735 L11.5618429,4.37473735 L11.999622,6.21589655 L21.5173307,6.21589655 C21.6794883,6.21589655 21.8091834,6.29735577 21.906478,6.41140491 C21.9875724,6.52545406 22.0200039,6.67209312 21.9875724,6.81873219 L21.9875724,6.81873219 L20.7877298,11.6252626 C20.739098,11.8533609 20.5445088,12 20.3175191,12 L20.3175191,12 L12.7454853,12 C12.5184956,12 12.3239064,11.8533609 12.2752746,11.6252626 L12.2752746,11.6252626 L10.7024848,4.97757299 L9.48641094,4.97757299 C9.21078945,4.97757299 9,4.76578526 9,4.48878649 C9,4.21178773 9.21078945,4 9.48641094,4 L9.48641094,4 Z" id="Combined-Shape-Copy" fill="#FFFFFF" fill-rule="nonzero"></path>
                        <path d="M1,17 L33,17 C33.5522847,17 34,17.4477153 34,18 L34,19 C34,19.5522847 33.5522847,20 33,20 L1,20 C0.44771525,20 6.76353751e-17,19.5522847 0,19 L0,18 C-6.76353751e-17,17.4477153 0.44771525,17 1,17 Z" id="Rectangle" fill="#E59AA3"></path>
                    </g>
                </g>
            </g>
        </g>
    </g>
</svg>