<?xml version="1.0" encoding="UTF-8"?>
<svg width="50px" height="50px" viewBox="0 0 50 50" version="1.1" xmlns="http://www.w3.org/2000/svg" xmlns:xlink="http://www.w3.org/1999/xlink">
    <!-- Generator: Sketch 53.2 (72643) - https://sketchapp.com -->
    <title>Enterprise mobile application development</title>
    <desc>Created with Sketch.</desc>
    <defs>
        <linearGradient x1="75.4765625%" y1="91.8652344%" x2="23.3007812%" y2="9.76367188%" id="linearGradient-1">
            <stop stop-color="#7FA8FF" offset="0%"></stop>
            <stop stop-color="#C7DAFF" offset="100%"></stop>
        </linearGradient>
        <filter x="-16.7%" y="-11.5%" width="133.3%" height="123.1%" filterUnits="objectBoundingBox" id="filter-2">
            <feGaussianBlur stdDeviation="1" in="SourceGraphic"></feGaussianBlur>
        </filter>
    </defs>
    <g id="Page-1" stroke="none" stroke-width="1" fill="none" fill-rule="evenodd">
        <g id="Icons-V2-Copy" transform="translate(-198.000000, -170.000000)">
            <g id="Enterprise-mobile-application-development" transform="translate(198.000000, 170.000000)">
                <circle id="Oval" fill="url(#linearGradient-1)" cx="25" cy="25" r="25"></circle>
                <path d="M16.9326425,13.6580311 L32.9326425,13.6580311 C33.4849272,13.6580311 33.9326425,14.1057463 33.9326425,14.6580311 L33.9326425,38.6580311 C33.9326425,39.2103158 33.4849272,39.6580311 32.9326425,39.6580311 L16.9326425,39.6580311 C16.3803577,39.6580311 15.9326425,39.2103158 15.9326425,38.6580311 L15.9326425,14.6580311 C15.9326425,14.1057463 16.3803577,13.6580311 16.9326425,13.6580311 Z" id="Rectangle" fill="#5D93E1" filter="url(#filter-2)"></path>
                <g id="Group" transform="translate(15.932642, 11.658031)">
                    <path d="M1,0 L17,0 C17.5522847,-1.01453063e-16 18,0.44771525 18,1 L18,25 C18,25.5522847 17.5522847,26 17,26 L1,26 C0.44771525,26 6.76353751e-17,25.5522847 0,25 L0,1 C-6.76353751e-17,0.44771525 0.44771525,1.01453063e-16 1,0 Z" id="Rectangle" fill="#FFFFFF"></path>
                    <circle id="Oval" fill="#749BED" cx="9" cy="22" r="2"></circle>
                </g>
                <path d="M41.3434943,20.57157 C40.9060884,20.0767168 40.3511561,19.758357 39.6793816,19.6163663 C39.8930907,19.3180314 39.9996443,18.9913383 39.9996443,18.6362867 C39.9996443,18.1343688 39.8042961,17.705909 39.4138186,17.350758 C39.023259,16.9957313 38.5519223,16.8181434 37.9998085,16.8181434 C37.4998495,16.8181434 37.0675058,16.9649351 36.703051,17.2585187 C36.3958955,16.586177 35.9074566,16.0416718 35.2383089,15.6250031 C34.5689971,15.2084339 33.8228485,15 32.9999179,15 C31.8958271,15 30.9530716,15.3552008 30.1718156,16.0654282 C29.3905049,16.7754815 28.9999726,17.6325753 28.9999726,18.6363614 C28.9999726,18.7074065 29.0051991,18.8091234 29.0155972,18.9417112 C28.4114653,19.1974089 27.9244493,19.5844507 27.554686,20.1030602 C27.1849501,20.6213713 27,21.1932149 27,21.818218 C27,22.6941179 27.3425092,23.4434251 28.0273362,24.0659655 C28.7121905,24.68868 29.5364345,25 30.499959,25 L39.0000547,25 C39.8280476,25 40.535039,24.7334564 41.1210562,24.2009662 C41.7069914,23.6683267 42,23.0256121 42,22.2727227 C41.9999179,21.6335653 41.7810644,21.066274 41.3434943,20.57157 Z" id="Path" fill="#7A97EC" opacity="0.699999988"></path>
            </g>
        </g>
    </g>
</svg>