<?xml version="1.0" encoding="UTF-8"?>
<svg width="50px" height="50px" viewBox="0 0 50 50" version="1.1" xmlns="http://www.w3.org/2000/svg" xmlns:xlink="http://www.w3.org/1999/xlink">
    <!-- Generator: Sketch 53.2 (72643) - https://sketchapp.com -->
    <title>Hire Dedicated  Developers</title>
    <desc>Created with Sketch.</desc>
    <defs>
        <linearGradient x1="75.4765625%" y1="91.8652344%" x2="23.3007812%" y2="9.76367188%" id="linearGradient-1">
            <stop stop-color="#F6B684" offset="0%"></stop>
            <stop stop-color="#FFEFCB" offset="100%"></stop>
        </linearGradient>
        <linearGradient x1="75.4765625%" y1="91.8652344%" x2="23.3007812%" y2="9.76367188%" id="linearGradient-2">
            <stop stop-color="#E0A0A0" offset="0%"></stop>
            <stop stop-color="#FFE0E0" offset="100%"></stop>
        </linearGradient>
        <filter x="-8.7%" y="-15.3%" width="117.5%" height="130.6%" filterUnits="objectBoundingBox" id="filter-3">
            <feGaussianBlur stdDeviation="1" in="SourceGraphic"></feGaussianBlur>
        </filter>
    </defs>
    <g id="Page-1" stroke="none" stroke-width="1" fill="none" fill-rule="evenodd">
        <g id="Icons-V2-Copy" transform="translate(-679.000000, -170.000000)">
            <g id="Hire-Dedicated--Developers" transform="translate(679.000000, 170.000000)">
                <g id="Dedicated-software-team">
                    <circle id="Oval" fill="url(#linearGradient-2)" cx="25" cy="25" r="25"></circle>
                    <path d="M40.342377,33.66 L41.32,33.66 C41.8722847,33.66 42.32,34.1077153 42.32,34.66 L42.32,35.6 C42.32,36.1522847 41.8722847,36.6 41.32,36.6 L9,36.6 C8.44771525,36.6 8,36.1522847 8,35.6 L8,34.66 C8,34.1077153 8.44771525,33.66 9,33.66 L10.060024,33.66 L10.060024,18 C10.060024,17.4477153 10.5077393,17 11.060024,17 L39.342377,17 C39.8946617,17 40.342377,17.4477153 40.342377,18 L40.342377,33.66 Z" id="Combined-Shape" fill="#D59898" filter="url(#filter-3)"></path>
                    <g id="Group-12" transform="translate(8.000000, 15.000000)" fill="#FFFFFF">
                        <path d="M3,0 L31,0 C31.5522847,-1.01453063e-16 32,0.44771525 32,1 L32,19 C32,19.5522847 31.5522847,20 31,20 L3,20 C2.44771525,20 2,19.5522847 2,19 L2,1 C2,0.44771525 2.44771525,1.01453063e-16 3,0 Z" id="Rectangle"></path>
                        <path d="M1,17 L33,17 C33.5522847,17 34,17.4477153 34,18 L34,19 C34,19.5522847 33.5522847,20 33,20 L1,20 C0.44771525,20 -4.51127002e-13,19.5522847 -4.51194637e-13,19 L-4.51194637e-13,18 C-4.51262273e-13,17.4477153 0.44771525,17 1,17 Z" id="Rectangle"></path>
                    </g>
                    <g id="Group-18" transform="translate(18.000000, 18.000000)" fill="#E6ABAB" fill-opacity="0.7">
                        <g id="Group-19">
                            <path d="M8.63883476,8.17037262 C9.18652089,7.51712192 9.51629966,6.67498967 9.51629966,5.75583272 C9.51629966,3.67897664 7.83263287,1.99530985 5.75583272,1.99530985 C3.67897664,1.99530985 1.99530985,3.67892071 1.99530985,5.75583272 C1.99530985,6.84705061 2.4600946,7.82970756 3.20250575,8.51663711 C3.54347901,7.62112556 4.27886817,7 5.12904367,7 L6.87097599,7 C7.60657335,7 8.25623131,7.46498887 8.63883476,8.17037262 Z M6,3 C6.82710641,3 7.5,3.67289359 7.5,4.5 C7.5,5.32710641 6.82710641,6 6,6 C5.17289359,6 4.5,5.32710641 4.5,4.5 C4.5,3.67289359 5.17289359,3 6,3 Z M13.6573716,12.0028445 C14.1142095,12.4597382 14.1142095,13.2004778 13.6573716,13.6573716 C13.2004219,14.1142095 12.4596823,14.1142095 12.0027885,13.6573716 L8.96130429,10.6158874 C8.94514046,10.5997235 8.93389849,10.5807632 8.91885327,10.5639282 C8.01105021,11.1623813 6.9244383,11.5116654 5.75577679,11.5116654 C2.57692799,11.5116654 0,8.93462559 0,5.75583272 C0,2.57698392 2.57698392,0 5.75583272,0 C8.93468152,0 11.5116654,2.57698392 11.5116654,5.75588865 C11.5116654,6.92449423 11.1623813,8.01116207 10.5639282,8.91896513 C10.5808191,8.93401036 10.5997795,8.94530826 10.6159433,8.96147208 L13.6573716,12.0028445 Z" id="Combined-Shape"></path>
                        </g>
                    </g>
                </g>
            </g>
        </g>
    </g>
</svg>