<?xml version="1.0" encoding="UTF-8"?>
<svg width="686px" height="126px" viewBox="0 0 686 126" version="1.1" xmlns="http://www.w3.org/2000/svg" xmlns:xlink="http://www.w3.org/1999/xlink">
    <!-- Generator: Sketch 54.1 (76490) - https://sketchapp.com -->
    <title>Final Final Final Logo</title>
    <desc>Created with Sketch.</desc>
    <defs>
        <linearGradient x1="35.4500727%" y1="61.1938494%" x2="85.7850798%" y2="25.6043656%" id="linearGradient-1">
            <stop stop-color="#EF5366" offset="0%"></stop>
            <stop stop-color="#D71E23" offset="100%"></stop>
        </linearGradient>
        <linearGradient x1="14.2149202%" y1="74.7169367%" x2="58.8350682%" y2="41.7400467%" id="linearGradient-2">
            <stop stop-color="#D71E23" offset="0%"></stop>
            <stop stop-color="#EF5366" offset="100%"></stop>
        </linearGradient>
    </defs>
    <g id="Final-Final-Final-Logo" stroke="none" stroke-width="1" fill="none" fill-rule="evenodd">
        <g id="Group-2">
            <g id="Group">
                <g id="final-logo">
                    <g id="Group-13">
                        <polygon id="Rectangle-Copy-4" fill="url(#linearGradient-1)" transform="translate(28.684399, 33.906250) scale(-1, -1) translate(-28.684399, -33.906250) " points="1.01907456e-13 34.7853144 57.3687977 0 57.3687977 31.2980769 1.01907456e-13 67.8125"></polygon>
                        <polygon id="Rectangle-Copy-4" fill="#EF5366" transform="translate(28.684399, 70.072917) scale(1, -1) translate(-28.684399, -70.072917) " points="1.01907456e-13 70.951981 57.3687977 36.1666667 57.3687977 67.4647436 1.01907456e-13 103.979167"></polygon>
                        <polygon id="Rectangle-Copy-4" fill="url(#linearGradient-2)" transform="translate(82.161117, 55.927083) scale(-1, 1) translate(-82.161117, -55.927083) " points="53.4767185 56.8061477 110.845516 22.0208333 110.845516 53.3189103 53.4767185 89.8333333"></polygon>
                        <polygon id="Rectangle-Copy-4" fill="#EF5366" points="53.4767185 92.9728144 110.845516 58.1875 110.845516 89.4855769 53.4767185 126"></polygon>
                    </g>
                </g>
            </g>
            <path d="M134.594937,79.1313559 L151.708528,79.1313559 C151.941366,84.1652542 156.01603,88.6271186 163.699683,88.6271186 C170.568403,88.6271186 175.341582,85.4237288 175.458001,80.2754237 C175.57442,76.7288136 173.944554,73.6398305 165.795225,71.3516949 L156.132449,68.720339 C138.436763,63.3432203 135.40987,53.1610169 135.40987,46.0677966 C135.40987,31.9957627 147.633863,22.5 163.001169,22.5 C178.484894,22.5 190.126793,31.5381356 190.126793,46.6398305 L173.129621,46.6398305 C173.129621,41.3771186 169.520632,37.7161017 162.768331,37.7161017 C156.830963,37.7161017 152.407041,40.9194915 152.407041,45.6101695 C152.407041,47.6694915 153.221974,51.4449153 161.022046,53.6186441 L170.568403,56.5932203 C190.010374,62.0847458 192.804429,72.8389831 192.571591,80.3898305 C192.338754,96.0635593 177.902799,103.5 163.699683,103.5 C146.236835,103.5 134.594937,93.3177966 134.594937,79.1313559 Z M206.819443,23.4152542 L226.753132,23.4152542 L226.753132,102.241525 L209.75596,102.241525 L209.75596,32.2714045 L206.819443,23.4152542 Z M292.484217,74.2118644 L316.466528,23.4152542 L330.786063,23.4152542 L340.565258,102.241525 L323.451667,102.241525 L317.863556,54.9915254 L299.120099,93.2033898 L285.964754,93.2033898 L267.104878,54.9915254 L261.400348,102.241525 L244.286757,102.241525 L253.067487,32.2961683 L249.776994,23.4152542 L268.269068,23.4152542 L292.484217,74.2118644 Z M358.098883,102.241525 L358.098883,32.9571204 L354.972476,23.4152542 L408.275466,23.4152542 L408.275466,38.1737288 L375.212474,38.1737288 L375.212474,56.1355932 L401.406746,56.1355932 L401.406746,70.779661 L375.212474,70.779661 L375.212474,102.241525 L358.098883,102.241525 Z M435.471867,63 C435.471867,76.1567797 445.833156,86.7966102 459.104921,86.7966102 C472.376685,86.7966102 482.854394,76.1567797 482.854394,63 C482.854394,49.8432203 472.376685,39.0889831 459.104921,39.0889831 C445.833156,39.0889831 435.471867,49.8432203 435.471867,63 Z M418.474695,63 C418.474695,40.5762712 436.403218,22.5 459.104921,22.5 C481.923042,22.5 499.851566,40.5762712 499.851566,63 C499.851566,85.1949153 481.923042,103.385593 459.104921,103.385593 C436.403218,103.385593 418.474695,85.1949153 418.474695,63 Z M549.167574,38.1737288 L534.265944,38.1737288 L534.265944,60.3686441 L548.701898,60.3686441 C555.33778,60.3686441 558.83035,54.4194915 558.83035,49.2711864 C558.83035,44.3516949 555.570618,38.1737288 549.167574,38.1737288 Z M556.618389,74.3262712 L578.562865,102.241525 L558.073124,102.241525 L538.10777,75.0127119 L534.265944,75.0127119 L534.265944,102.241525 L517.152353,102.241525 L517.152353,32.5541375 L513.811158,23.4152542 L549.982507,23.4152542 C568.143868,23.4152542 576.642454,36.3432203 576.642454,49.2711864 C576.642454,60.4830508 570.355829,71.4661017 556.618389,74.3262712 Z M637.918959,73.2966102 L661.90127,22.5 L676.220805,22.5 L686,101.326271 L668.886409,101.326271 L663.298298,54.0762712 L644.554841,92.2881356 L631.399496,92.2881356 L612.53962,54.0762712 L606.83509,101.326271 L589.721499,101.326271 L598.502229,31.380914 L595.211737,22.5 L613.70381,22.5 L637.918959,73.2966102 Z" id="SIMFORM" fill="#EF5366" fill-rule="nonzero"></path>
        </g>
    </g>
</svg>