<?xml version="1.0" encoding="UTF-8"?>
<svg width="50px" height="50px" viewBox="0 0 50 50" version="1.1" xmlns="http://www.w3.org/2000/svg" xmlns:xlink="http://www.w3.org/1999/xlink">
    <!-- Generator: Sketch 63.1 (92452) - https://sketch.com -->
    <title>Group 6</title>
    <desc>Created with Sketch.</desc>
    <defs>
        <filter x="-8.8%" y="-15.0%" width="117.6%" height="130.0%" filterUnits="objectBoundingBox" id="filter-1">
            <feGaussianBlur stdDeviation="1" in="SourceGraphic"></feGaussianBlur>
        </filter>
    </defs>
    <g id="Simform-Website" stroke="none" stroke-width="1" fill="none" fill-rule="evenodd">
        <g id="Homepage-menu-" transform="translate(-819.000000, -108.000000)">
            <g id="Group" transform="translate(310.000000, 68.000000)">
                <g id="Group-6" transform="translate(509.000000, 40.000000)">
                    <circle id="Oval" fill="#A2D0F7" cx="25" cy="25" r="25"></circle>
                    <g id="Dedicated-software-team" transform="translate(8.000000, 15.000000)">
                        <g id="Group-12">
                            <path d="M1,22 C0.44771525,22 -4.26258006e-13,21.5522847 -4.26325641e-13,21 L-4.26325641e-13,20 C-4.26393277e-13,19.4477153 0.44771525,19 1,19 L2,19 L2,3 C2,2.44771525 2.44771525,2 3,2 L31,2 C31.5522847,2 32,2.44771525 32,3 L32,19 L33,19 C33.5522847,19 34,19.4477153 34,20 L34,21 C34,21.5522847 33.5522847,22 33,22 L1,22 Z" id="Combined-Shape" fill-opacity="0.50352382" fill="#4E8ABD" opacity="0.900000036" filter="url(#filter-1)"></path>
                            <path d="M3,0 L31,0 C31.5522847,-1.01453063e-16 32,0.44771525 32,1 L32,19 C32,19.5522847 31.5522847,20 31,20 L3,20 C2.44771525,20 2,19.5522847 2,19 L2,1 C2,0.44771525 2.44771525,1.01453063e-16 3,0 Z" id="Rectangle" fill="#4E8ABD"></path>
                            <path d="M22.1567612,7.2881474 C22.1567612,7.2881474 24,7.16943248 24,10.5167838 C24,13.8641864 21.888191,13.6234305 21.888191,13.6234305 L17.4879866,13.6234305 L17.4879866,14.0709141 L20.6373746,14.0709141 L20.6410397,15.5613492 C20.6410397,15.5613492 20.8470996,17 17.5468827,17 C14.0979239,17 14.364407,15.2654829 14.364407,15.2654829 L14.364407,15.2654829 L14.364407,12.3992852 C14.364407,10.7941985 15.8689682,10.6997389 16.0918661,10.6945519 L19.2429067,10.6942933 C20.9153348,10.6942933 21.0472473,9.21719369 21.0563155,8.90067234 L21.0567229,7.2881474 Z M19.2834264,14.8586794 C19.1331143,14.8585437 18.9889205,14.9185104 18.8826385,15.0253575 C18.7763565,15.1322046 18.7167146,15.2771576 18.7168631,15.4282554 C18.7167281,15.5793444 18.776376,15.7242842 18.8826565,15.8311202 C18.988937,15.9379563 19.1331231,15.9979159 19.2834264,15.9977802 C19.4337297,15.9978648 19.5779158,15.9379051 19.6841963,15.831069 C19.7904768,15.724233 19.8501247,15.5792932 19.8499897,15.4282042 C19.8501247,15.2771153 19.7904768,15.1321755 19.6841963,15.0253394 C19.5779158,14.9185034 19.4337297,14.8585437 19.2834264,14.8586794 Z M17.4531682,4 C20.902127,4 20.635593,5.73456824 20.635593,5.73456824 L20.635593,5.73456824 L20.635593,8.60071481 C20.635593,10.2057542 19.1310318,10.3002102 18.9081339,10.3053969 L15.7570933,10.3056555 C14.0846652,10.3056555 13.9527527,11.7827551 13.9436845,12.0992765 L13.9432771,13.7118526 L12.8432388,13.7118526 C12.8432388,13.7118526 11,13.8305675 11,10.483165 C11,7.13586482 13.111809,7.37662072 13.111809,7.37662072 L17.5120134,7.37662072 L17.5120134,6.92913711 L14.3626763,6.92913711 L14.3590112,5.43865084 C14.3590112,5.43865084 14.1529513,4 17.4531682,4 Z M15.7166245,5.00232211 C15.5663212,5.00218641 15.4221351,5.06214607 15.3158546,5.16898213 C15.2095741,5.27581819 15.1499263,5.42075799 15.1500612,5.57184693 C15.1499263,5.72293587 15.2095741,5.86787567 15.3158546,5.97471173 C15.4221351,6.08154779 15.5663212,6.14150745 15.7166245,6.14137175 C15.8669278,6.14150745 16.0111139,6.08154779 16.1173944,5.97471173 C16.2236749,5.86787567 16.2833228,5.72293587 16.2831878,5.57184693 C16.2833228,5.42075799 16.2236749,5.27581819 16.1173944,5.16898213 C16.0111139,5.06214607 15.8669278,5.00218641 15.7166245,5.00232211 Z" id="Combined-Shape" fill="#FFFFFF" fill-rule="nonzero"></path>
                            <path d="M1,17 L33,17 C33.5522847,17 34,17.4477153 34,18 L34,19 C34,19.5522847 33.5522847,20 33,20 L1,20 C0.44771525,20 6.76353751e-17,19.5522847 0,19 L0,18 C-6.76353751e-17,17.4477153 0.44771525,17 1,17 Z" id="Rectangle" fill="#4E8ABD"></path>
                        </g>
                    </g>
                </g>
            </g>
        </g>
    </g>
</svg>