<?xml version="1.0" encoding="UTF-8"?>
<svg width="50px" height="50px" viewBox="0 0 50 50" version="1.1" xmlns="http://www.w3.org/2000/svg" xmlns:xlink="http://www.w3.org/1999/xlink">
    <!-- Generator: Sketch 63.1 (92452) - https://sketch.com -->
    <title>Flutter</title>
    <desc>Created with Sketch.</desc>
    <defs>
        <filter x="-8.8%" y="-15.0%" width="117.6%" height="130.0%" filterUnits="objectBoundingBox" id="filter-1">
            <feGaussianBlur stdDeviation="1" in="SourceGraphic"></feGaussianBlur>
        </filter>
    </defs>
    <g id="Simform-Website" stroke="none" stroke-width="1" fill="none" fill-rule="evenodd">
        <g id="Homepage-menu-" transform="translate(-503.000000, -229.000000)">
            <g id="Group" transform="translate(310.000000, 68.000000)">
                <g id="Flutter" transform="translate(193.000000, 161.000000)">
                    <circle id="Oval" fill="#74BFFC" cx="25" cy="25" r="25"></circle>
                    <g id="Group-2" transform="translate(8.000000, 15.000000)">
                        <path d="M1,22 C0.44771525,22 1.42784901e-14,21.5522847 1.42108547e-14,21 L1.42108547e-14,20 C1.41432193e-14,19.4477153 0.44771525,19 1,19 L2,19 L2,3 C2,2.44771525 2.44771525,2 3,2 L31,2 C31.5522847,2 32,2.44771525 32,3 L32,19 L33,19 C33.5522847,19 34,19.4477153 34,20 L34,21 C34,21.5522847 33.5522847,22 33,22 L1,22 Z" id="Combined-Shape" fill="#55ADF4" filter="url(#filter-1)"></path>
                        <path d="M3,0 L31,0 C31.5522847,-1.01453063e-16 32,0.44771525 32,1 L32,19 C32,19.5522847 31.5522847,20 31,20 L3,20 C2.44771525,20 2,19.5522847 2,19 L2,1 C2,0.44771525 2.44771525,1.01453063e-16 3,0 Z" id="Rectangle" fill="#389FF3"></path>
                        <path d="M1,17 L33,17 C33.5522847,17 34,17.4477153 34,18 L34,19 C34,19.5522847 33.5522847,20 33,20 L1,20 C0.44771525,20 6.76353751e-17,19.5522847 0,19 L0,18 C-6.76353751e-17,17.4477153 0.44771525,17 1,17 Z" id="Rectangle" fill="#389FF3"></path>
                        <g id="flutter" transform="translate(11.000000, 3.000000)" fill="#FFFFFF" fill-rule="nonzero">
                            <path d="M2.19153989,9.18030767 L0.0411764706,7.02826256 L7.02336698,0.0411764706 L11.3235294,0.0411764706 M11.3235294,6.48883918 L7.02336698,6.48883918 L5.41256981,8.10089607 L7.56293323,10.2529412" id="Shape" opacity="0.800000012"></path>
                            <polyline id="Path" points="5.39411765 12.3361876 7.00994322 13.9588235 11.3235294 13.9588235 7.55119383 10.1705882"></polyline>
                            <polygon id="Path" points="3.25294118 10.2532226 5.39411765 8.11176471 7.53529412 10.2526598 5.39411765 12.3941176"></polygon>
                        </g>
                    </g>
                </g>
            </g>
        </g>
    </g>
</svg>