<?xml version="1.0" encoding="UTF-8"?>
<svg width="50px" height="50px" viewBox="0 0 50 50" version="1.1" xmlns="http://www.w3.org/2000/svg" xmlns:xlink="http://www.w3.org/1999/xlink">
    <!-- Generator: Sketch 63.1 (92452) - https://sketch.com -->
    <title>Group 5</title>
    <desc>Created with Sketch.</desc>
    <defs>
        <filter x="-8.8%" y="-15.0%" width="117.6%" height="130.0%" filterUnits="objectBoundingBox" id="filter-1">
            <feGaussianBlur stdDeviation="1" in="SourceGraphic"></feGaussianBlur>
        </filter>
    </defs>
    <g id="Simform-Website" stroke="none" stroke-width="1" fill="none" fill-rule="evenodd">
        <g id="Homepage-menu-" transform="translate(-345.000000, -229.000000)">
            <g id="Group" transform="translate(310.000000, 68.000000)">
                <g id="Group-5" transform="translate(35.000000, 161.000000)">
                    <circle id="Oval" fill="#FFEDCB" cx="25" cy="25" r="25"></circle>
                    <g id="Group-2" transform="translate(8.000000, 15.000000)">
                        <path d="M1,22 C0.44771525,22 -4.26258006e-13,21.5522847 -4.26325641e-13,21 L-4.26325641e-13,20 C-4.26393277e-13,19.4477153 0.44771525,19 1,19 L2,19 L2,3 C2,2.44771525 2.44771525,2 3,2 L31,2 C31.5522847,2 32,2.44771525 32,3 L32,19 L33,19 C33.5522847,19 34,19.4477153 34,20 L34,21 C34,21.5522847 33.5522847,22 33,22 L1,22 Z" id="Combined-Shape" fill-opacity="0.497131774" fill="#F0CD62" filter="url(#filter-1)"></path>
                        <path d="M3,0 L31,0 C31.5522847,-1.01453063e-16 32,0.44771525 32,1 L32,19 C32,19.5522847 31.5522847,20 31,20 L3,20 C2.44771525,20 2,19.5522847 2,19 L2,1 C2,0.44771525 2.44771525,1.01453063e-16 3,0 Z" id="Rectangle" fill="#F0CD62"></path>
                        <path d="M21.2351962,3.17726414 C22.0513286,3.66834705 22.2903132,5.16016382 21.9247995,7.01197872 C21.9019603,7.12702127 21.877084,7.24161303 21.8501832,7.35569519 C22.0123961,7.40438674 22.1734078,7.45733629 22.3330648,7.51449344 C23.9531148,8.09654586 25,9.00831944 25,9.95106283 C25,10.9342679 23.8812202,11.8955793 22.1615934,12.4901721 C22.0707129,12.5216269 21.9775753,12.5518346 21.8826453,12.5810723 C21.9165014,12.7232425 21.9467064,12.8628492 21.9725964,12.9995459 C22.3120873,14.7892133 22.0506647,16.2601757 21.2460833,16.7462702 C20.46706,17.2169144 19.2080095,16.7545842 17.9331596,15.609671 C17.7945892,15.4849221 17.6593776,15.356166 17.5276824,15.2235529 C17.4231266,15.329072 17.3187036,15.4297412 17.214679,15.5246599 C15.8985378,16.7253465 14.5469472,17.2234964 13.7416355,16.7388568 C12.9619483,16.2694597 12.7169228,14.9002058 13.0306564,13.1757344 C13.0649377,12.9883213 13.1042306,12.8019446 13.1484891,12.6168227 C13.0122533,12.576236 12.877008,12.5321116 12.7428791,12.4844908 C11.0887075,11.8944708 10,10.9213119 10,9.95106283 C10,9.01171434 11.014224,8.10603773 12.6022765,7.52821162 C12.779789,7.4636392 12.965334,7.40294668 13.157451,7.34599547 C13.1162948,7.17416364 13.0793287,7.00126808 13.0465887,6.82747621 C12.7175202,5.07251993 12.9490697,3.67000986 13.7308148,3.19770283 C14.5460842,2.70516496 15.9038485,3.23407678 17.2584264,4.48935897 C17.3426848,4.56761137 17.425547,4.64748609 17.5069704,4.72894203 C17.6285572,4.60644098 17.7530902,4.48716566 17.8804502,4.37123025 C19.1729585,3.19735641 20.4527209,2.7062735 21.2351962,3.17726414 Z M21.2628122,12.7507481 C20.6415187,12.9006088 19.9564296,13.0104235 19.2312441,13.0775594 C18.8189957,13.7004199 18.3965905,14.2613408 17.9739197,14.7438325 C18.1001832,14.8706217 18.2261148,14.9904825 18.351117,15.1027221 C19.441285,16.0818394 20.4522562,16.4530615 20.924981,16.1674741 C21.1471039,16.0332716 21.3267406,15.6982156 21.4160943,15.1956316 C21.5155384,14.6363042 21.4940962,13.9208114 21.3440006,13.1294529 C21.3205668,13.00592 21.2933491,12.8796158 21.2628122,12.7507481 Z M13.7697826,12.7806787 C13.728674,12.952844 13.6921485,13.1261661 13.660248,13.3004451 C13.3919878,14.7751487 13.588619,15.8746812 14.0618085,16.1594372 C14.2841305,16.293224 14.6519676,16.2883742 15.1138053,16.1181441 C15.6278213,15.9286532 16.2110101,15.5520269 16.7930039,15.0210366 C16.890411,14.9319514 16.9857018,14.8403768 17.0787897,14.746396 C16.640784,14.2557981 16.206164,13.69557 15.7911939,13.0860813 C15.0642824,13.0245573 14.3841721,12.9225024 13.7697826,12.7806787 Z M18.405486,13.1346491 C18.1080166,13.1485059 17.8057675,13.1556421 17.5,13.1556421 C17.2023978,13.1556421 16.9095753,13.1496837 16.6223955,13.1379055 C16.9182717,13.5448087 17.2211847,13.9230977 17.5248942,14.2651514 C17.818447,13.927809 18.1133938,13.5489657 18.405486,13.1346491 Z M17.5000664,7.44313123 C17.0376976,7.44313123 16.5803077,7.46156069 16.1342031,7.49675682 C15.9628642,7.75879685 15.7979239,8.02530175 15.6395377,8.29601327 L15.4068934,8.70520322 L15.1841276,9.12015606 C15.0389587,9.39879418 14.9004952,9.68120923 14.7688709,9.96713665 C14.9668108,10.3958993 15.1802805,10.8166622 15.4088185,11.2285158 C15.6384298,11.6425662 15.8829664,12.0474032 16.1419037,12.4421585 C16.5791791,12.4717426 17.0332498,12.4869158 17.5,12.4869158 C17.9686753,12.4869158 18.4285879,12.4698027 18.8736303,12.4366158 C19.1260216,12.0409392 19.3660182,11.6368016 19.5932394,11.2248438 C19.8224944,10.8105637 20.0374734,10.3878962 20.2378339,9.95764478 C20.0353909,9.53173278 19.8197261,9.1128067 19.5911815,8.70153119 C19.3639208,8.29133057 19.122861,7.88962772 18.8684523,7.49717252 C18.4224805,7.46169926 17.9644931,7.44313123 17.5000664,7.44313123 Z M14.4289817,10.7535067 C14.2383915,11.2253288 14.0752182,11.6892525 13.9427809,12.1355781 C14.3706297,12.2327831 14.8339278,12.3103116 15.3251739,12.3675399 C15.1620968,12.1034947 15.0050748,11.8354291 14.8542415,11.5635718 C14.7064235,11.2970666 14.5646311,11.0269703 14.4289817,10.7535067 Z M20.5833658,10.7294653 C20.4442741,11.0092876 20.2992321,11.2858443 20.1483475,11.5589298 C19.9999209,11.827632 19.8463872,12.0932259 19.6878375,12.3555539 C20.1826019,12.2936142 20.6521402,12.2101966 21.0870922,12.1066175 C20.9528625,11.6678438 20.7838473,11.2064143 20.5833658,10.7294653 Z M13.3295199,7.99019537 C13.1558806,8.04143768 12.9837158,8.09797431 12.8132468,8.1597326 C11.4550842,8.65393328 10.6407442,9.38106578 10.6407442,9.95106283 C10.6407442,10.2189829 10.8286127,10.5491198 11.200632,10.8816816 C11.6146728,11.2516566 12.2187063,11.590731 12.9501319,11.8516535 C13.0725946,11.8951371 13.196063,11.9354724 13.3204252,11.9726228 C13.5098869,11.3279379 13.7596258,10.6511054 14.0606136,9.9673445 C13.7634761,9.29362974 13.5172556,8.62739762 13.3295199,7.99019537 Z M21.678579,8.00003366 C21.4940298,8.6232406 21.2477429,9.28164366 20.9485475,9.95438845 C21.2620156,10.6434149 21.5182602,11.3104092 21.7081202,11.9376345 C21.7938891,11.9110989 21.8780648,11.8837318 21.9600497,11.8553948 C23.4448078,11.3419332 24.3592558,10.556256 24.3592558,9.95106283 C24.3592558,9.38293644 23.5125865,8.64554995 22.1244844,8.14691512 C21.9809609,8.09529876 21.8319938,8.04645374 21.678579,8.00003366 Z M17.5,8.55312549 C18.23979,8.55312549 18.8394422,9.17903449 18.8394422,9.95106283 C18.8394422,10.7231605 18.23979,11.3490695 17.5,11.3490695 C16.7602763,11.3490695 16.1605578,10.7231605 16.1605578,9.95106283 C16.1605578,9.17903449 16.7602763,8.55312549 17.5,8.55312549 Z M19.6896298,7.5835693 C19.8470418,7.84108917 19.99912,8.10211835 20.1457585,8.36647518 C20.2947732,8.63499631 20.4386352,8.90659639 20.5772584,9.181113 C20.7669856,8.71760501 20.928101,8.26545954 21.0573519,7.83305993 C20.6267813,7.73045076 20.1682628,7.64661747 19.6896298,7.5835693 Z M15.3114987,7.58232219 C14.8359858,7.64433111 14.3795916,7.7260166 13.95161,7.82599299 C14.0819894,8.26455885 14.2416444,8.71871355 14.4282515,9.18062802 C14.5633314,8.90736703 14.7045035,8.6374335 14.8516525,8.37104791 C14.9989983,8.10441908 15.1523226,7.84143802 15.3114987,7.58232219 Z M18.3011294,4.8757542 C18.1835489,4.98282462 18.0685352,5.0929273 17.956195,5.20596035 C18.3849068,5.68803638 18.811959,6.24500809 19.224141,6.85754534 C19.9316681,6.92682905 20.6074634,7.03837581 21.2297527,7.18823647 C21.2540281,7.08492785 21.2765141,6.98117014 21.2971995,6.87701406 C21.6127919,5.27815397 21.417422,4.05896859 20.915156,3.75661449 C20.4435598,3.47275915 19.4085574,3.86989335 18.3011294,4.8757542 Z M14.0518508,3.77649892 C13.5807193,4.06111638 13.3935147,5.19535994 13.6754501,6.69902422 C13.7059268,6.86061778 13.7403028,7.02145324 13.7785454,7.1813081 C14.3993742,7.03449593 15.0747048,6.9248891 15.780174,6.85664465 C16.1915594,6.25068936 16.6221964,5.69468761 17.0579449,5.20630677 C16.9827312,5.13127251 16.9076502,5.05873247 16.8329011,4.98944876 C15.6633371,3.90564375 14.5537184,3.47331342 14.0518508,3.77649892 Z M17.5071695,5.68422577 C17.2069783,6.02226098 16.9084468,6.39486875 16.6170184,6.79595213 C17.207654,6.76710086 17.7992625,6.76723958 18.3898856,6.79636783 C18.0987228,6.39154313 17.8027138,6.01838109 17.5071695,5.68422577 Z" id="Combined-Shape" fill="#FFFFFF" fill-rule="nonzero"></path>
                        <path d="M1,17 L33,17 C33.5522847,17 34,17.4477153 34,18 L34,19 C34,19.5522847 33.5522847,20 33,20 L1,20 C0.44771525,20 6.76353751e-17,19.5522847 0,19 L0,18 C-6.76353751e-17,17.4477153 0.44771525,17 1,17 Z" id="Rectangle" fill="#F0CD62"></path>
                    </g>
                </g>
            </g>
        </g>
    </g>
</svg>