<?xml version="1.0" encoding="UTF-8"?>
<svg width="50px" height="50px" viewBox="0 0 50 50" version="1.1" xmlns="http://www.w3.org/2000/svg" xmlns:xlink="http://www.w3.org/1999/xlink">
    <!-- Generator: Sketch 63.1 (92452) - https://sketch.com -->
    <title>Php</title>
    <desc>Created with Sketch.</desc>
    <defs>
        <filter x="-8.8%" y="-15.0%" width="117.6%" height="130.0%" filterUnits="objectBoundingBox" id="filter-1">
            <feGaussianBlur stdDeviation="1" in="SourceGraphic"></feGaussianBlur>
        </filter>
    </defs>
    <g id="Simform-Website" stroke="none" stroke-width="1" fill="none" fill-rule="evenodd">
        <g id="Homepage-menu-" transform="translate(-819.000000, -229.000000)">
            <g id="Group" transform="translate(310.000000, 68.000000)">
                <g id="Php" transform="translate(509.000000, 161.000000)">
                    <circle id="Oval" fill="#C2C7E0" cx="25" cy="25" r="25"></circle>
                    <g id="Group-2" transform="translate(8.000000, 15.000000)">
                        <path d="M1,22 C0.44771525,22 -4.26258006e-13,21.5522847 -4.26325641e-13,21 L-4.26325641e-13,20 C-4.26393277e-13,19.4477153 0.44771525,19 1,19 L2,19 L2,3 C2,2.44771525 2.44771525,2 3,2 L31,2 C31.5522847,2 32,2.44771525 32,3 L32,19 L33,19 C33.5522847,19 34,19.4477153 34,20 L34,21 C34,21.5522847 33.5522847,22 33,22 L1,22 Z" id="Combined-Shape" fill="#A2AAD2" filter="url(#filter-1)"></path>
                        <path d="M3,0 L31,0 C31.5522847,-1.01453063e-16 32,0.44771525 32,1 L32,19 C32,19.5522847 31.5522847,20 31,20 L3,20 C2.44771525,20 2,19.5522847 2,19 L2,1 C2,0.44771525 2.44771525,1.01453063e-16 3,0 Z" id="Rectangle" fill="#8993BE"></path>
                        <g id="php-1" transform="translate(8.000000, 5.000000)" fill="#FFFFFF" fill-rule="nonzero">
                            <path d="M9,0 C13.9705627,0 18,2.09603014 18,4.68161435 C18,7.26719856 13.9705627,9.3632287 9,9.3632287 C4.02943725,9.3632287 0,7.26719856 0,4.68161435 C0,2.09603014 4.02943725,0 9,0 Z M5.80681209,2.46657351 L3.52808147,2.46657351 L2.5426009,7.46636771 L3.71284151,7.46636771 L3.95921165,6.17012738 L5.06770167,6.17012738 C6.11479234,6.23187323 7.2849627,5.367713 7.2849627,3.88630554 C7.2849627,3.02207491 6.79222241,2.52831936 5.80681209,2.46657351 L5.80681209,2.46657351 Z M14.0598957,2.46657351 L11.7810949,2.46657351 L10.7956845,7.46636771 L11.9658549,7.46636771 L12.212225,6.17012738 L13.3208556,6.17012738 C14.367876,6.23187323 15.5381166,5.367713 15.5381166,3.88630554 C15.5381166,3.02207491 15.0453763,2.52831936 14.0598957,2.46657351 L14.0598957,2.46657351 Z M9.21166573,1.17040359 L8.04142511,1.17040359 L7.0560148,6.17012738 L8.22625541,6.17012738 L8.78053554,3.39247958 L9.70440601,3.39247958 C10.1354659,3.39247958 10.1354659,3.57764671 10.0739261,3.88630554 L10.0739261,3.88630554 L9.64279591,6.17012738 L10.8745764,6.17012738 L11.3057066,3.63939256 C11.4288565,3.02207491 11.0593364,2.52831936 10.0738559,2.46657351 L10.0738559,2.46657351 L8.96529559,2.46657351 L9.21166573,1.17040359 Z M5.31414206,3.39247958 C5.74527225,3.39247958 6.05318224,3.57764671 6.05318224,3.94798098 C5.99164239,4.99737874 5.4989021,5.18254587 4.94462197,5.24429172 L4.94462197,5.24429172 L4.2055818,5.24429172 L4.51349179,3.39247958 Z M13.5672257,3.39247958 C13.9983559,3.39247958 14.3062659,3.57764671 14.3062659,3.94798098 C14.244726,4.99737874 13.7519857,5.18254587 13.1977056,5.24429172 L13.1977056,5.24429172 L12.4585952,5.24429172 L12.7665052,3.39247958 Z" id="Combined-Shape"></path>
                        </g>
                        <path d="M1,17 L33,17 C33.5522847,17 34,17.4477153 34,18 L34,19 C34,19.5522847 33.5522847,20 33,20 L1,20 C0.44771525,20 6.76353751e-17,19.5522847 0,19 L0,18 C-6.76353751e-17,17.4477153 0.44771525,17 1,17 Z" id="Rectangle" fill="#8993BE"></path>
                    </g>
                </g>
            </g>
        </g>
    </g>
</svg>