<?xml version="1.0" encoding="UTF-8"?>
<svg width="50px" height="50px" viewBox="0 0 50 50" version="1.1" xmlns="http://www.w3.org/2000/svg" xmlns:xlink="http://www.w3.org/1999/xlink">
    <!-- Generator: Sketch 63.1 (92452) - https://sketch.com -->
    <title>net</title>
    <desc>Created with Sketch.</desc>
    <defs>
        <filter x="-8.8%" y="-15.0%" width="117.6%" height="130.0%" filterUnits="objectBoundingBox" id="filter-1">
            <feGaussianBlur stdDeviation="1" in="SourceGraphic"></feGaussianBlur>
        </filter>
    </defs>
    <g id="Simform-Website" stroke="none" stroke-width="1" fill="none" fill-rule="evenodd">
        <g id="Homepage-menu-" transform="translate(-661.000000, -229.000000)">
            <g id="Group" transform="translate(310.000000, 68.000000)">
                <g id=".net" transform="translate(351.000000, 161.000000)">
                    <circle id="Oval" fill="#69D2FF" cx="25" cy="25" r="25"></circle>
                    <g id="Group-2" transform="translate(8.000000, 15.000000)">
                        <path d="M1,22 C0.44771525,22 1.42784901e-14,21.5522847 1.42108547e-14,21 L1.42108547e-14,20 C1.41432193e-14,19.4477153 0.44771525,19 1,19 L2,19 L2,3 C2,2.44771525 2.44771525,2 3,2 L31,2 C31.5522847,2 32,2.44771525 32,3 L32,19 L33,19 C33.5522847,19 34,19.4477153 34,20 L34,21 C34,21.5522847 33.5522847,22 33,22 L1,22 Z" id="Combined-Shape" fill="#59C2EF" filter="url(#filter-1)"></path>
                        <path d="M3,0 L31,0 C31.5522847,-1.01453063e-16 32,0.44771525 32,1 L32,19 C32,19.5522847 31.5522847,20 31,20 L3,20 C2.44771525,20 2,19.5522847 2,19 L2,1 C2,0.44771525 2.44771525,1.01453063e-16 3,0 Z" id="Rectangle" fill="#46B4E2"></path>
                        <path d="M26,7.0009779 C24.5531886,9.57991116 23.4351534,11.3538651 22.6458946,12.3228397 C21.8566357,13.2918143 21.126843,13.7865155 20.4565164,13.8069433 L20.4565164,13.8069433 L17.1086692,13.8069433 C16.0928777,13.8051994 15.3730518,13.0056758 14.9491915,11.4083724 C14.6417649,9.99114151 14.3727228,9.08258961 14.1910192,8.54914772 C13.9354663,8.70947902 13.4945724,9.09798346 12.8679031,9.71507699 L12.9102147,9.67165386 C12.8511619,9.8433249 12.7915249,10.0282488 12.7313036,10.2264257 C12.3328884,11.837331 11.8932666,12.8787744 11.4124384,13.3507559 C10.8417799,13.8592085 9.7043005,14.0690168 8,13.9801809 C8.43854009,11.9816957 9.0927189,10.4637368 9.96253643,9.42630418 C11.0339052,7.94080553 11.9962571,7.17366742 12.849592,7.12488986 C14.2349028,7.16076304 15.5373369,7.16076304 16.7568946,7.12488986 C17.5912745,7.13420692 18.2070025,7.8384673 18.6040786,9.23767101 L18.6040786,9.23767101 L19.5343924,12.4908458 C19.7793135,11.8450288 20.1436561,10.7606372 20.6274203,9.23767101 C21.1111846,7.71470481 21.7840093,6.96914044 22.6458946,7.0009779 L22.6458946,7.0009779 Z" id="Combined-Shape" fill="#FFFFFF"></path>
                        <path d="M1,17 L33,17 C33.5522847,17 34,17.4477153 34,18 L34,19 C34,19.5522847 33.5522847,20 33,20 L1,20 C0.44771525,20 6.76353751e-17,19.5522847 0,19 L0,18 C-6.76353751e-17,17.4477153 0.44771525,17 1,17 Z" id="Rectangle" fill="#46B4E2"></path>
                    </g>
                </g>
            </g>
        </g>
    </g>
</svg>