<?xml version="1.0" encoding="UTF-8"?>
<svg width="50px" height="50px" viewBox="0 0 50 50" version="1.1" xmlns="http://www.w3.org/2000/svg" xmlns:xlink="http://www.w3.org/1999/xlink">
    <!-- Generator: Sketch 63.1 (92452) - https://sketch.com -->
    <title>Group 7</title>
    <desc>Created with Sketch.</desc>
    <defs>
        <filter x="-8.8%" y="-15.0%" width="117.6%" height="130.0%" filterUnits="objectBoundingBox" id="filter-1">
            <feGaussianBlur stdDeviation="1" in="SourceGraphic"></feGaussianBlur>
        </filter>
    </defs>
    <g id="Simform-Website" stroke="none" stroke-width="1" fill="none" fill-rule="evenodd">
        <g id="Homepage-menu-" transform="translate(-977.000000, -108.000000)">
            <g id="Group" transform="translate(310.000000, 68.000000)">
                <g id="Group-7" transform="translate(667.000000, 40.000000)">
                    <circle id="Oval" fill="#FFC2C2" cx="25" cy="25" r="25"></circle>
                    <g id="Group-48" transform="translate(8.000000, 15.000000)">
                        <path d="M1,22 C0.44771525,22 -4.26258006e-13,21.5522847 -4.26325641e-13,21 L-4.26325641e-13,20 C-4.26393277e-13,19.4477153 0.44771525,19 1,19 L2,19 L2,3 C2,2.44771525 2.44771525,2 3,2 L31,2 C31.5522847,2 32,2.44771525 32,3 L32,19 L33,19 C33.5522847,19 34,19.4477153 34,20 L34,21 C34,21.5522847 33.5522847,22 33,22 L1,22 Z" id="Combined-Shape" fill-opacity="0.503633086" fill="#EE5A5A" opacity="0.900000036" filter="url(#filter-1)"></path>
                        <path d="M3,0 L31,0 C31.5522847,-1.01453063e-16 32,0.44771525 32,1 L32,19 C32,19.5522847 31.5522847,20 31,20 L3,20 C2.44771525,20 2,19.5522847 2,19 L2,1 C2,0.44771525 2.44771525,1.01453063e-16 3,0 Z" id="Rectangle" fill="#EE5A5A"></path>
                        <path d="M17.026749,4.05603448 C22.9835391,3.47270115 28.3333333,8.69252874 28.3333333,8.69252874 C28.3333333,8.69252874 28.1584362,8.81321839 27.973251,8.96408046 C22.1296296,4.73994253 18.5596708,6.73132184 17.4382716,7.26436782 C12.2942387,10.0704023 13.8477366,17 13.8477366,17 L13.8477366,17 L5.72016461,17 C5.72016461,17 6.02880658,14.0229885 8.18930041,10.5028736 C10.3497942,6.98275862 14.0329218,4.31752874 17.026749,4.05603448 Z M14.1563786,14.9885057 L15.2674897,15.3807471 C15.3292181,15.8534483 15.4218107,16.295977 15.5144033,16.6882184 L15.5144033,16.6882184 L14.2798354,16.2557471 C14.2283951,15.954023 14.1769547,15.5215517 14.1563786,14.9885057 L14.1563786,14.9885057 Z M5.51440329,11.7298851 L6.69753086,12.1522989 C6.53292181,12.5244253 6.31687243,13.0172414 6.18312757,13.3591954 L6.18312757,13.3591954 L5,12.9367816 C5.10288066,12.6652299 5.31893004,12.1623563 5.51440329,11.7298851 L5.51440329,11.7298851 Z M14.6193416,11.3275862 L15.3600823,11.9008621 C15.2572016,12.2931034 15.1851852,12.6853448 15.1440329,13.0775862 L15.1440329,13.0775862 L14.3106996,12.433908 C14.3930041,12.0718391 14.4855967,11.6997126 14.6193416,11.3275862 L14.6193416,11.3275862 Z M16.4403292,8.52155172 L16.9032922,9.20545977 C16.6769547,9.43678161 16.4711934,9.66810345 16.2962963,9.91954023 L16.2962963,9.91954023 L15.8024691,9.1954023 C15.9876543,8.96408046 16.2037037,8.73275862 16.4403292,8.52155172 L16.4403292,8.52155172 Z M9.07407407,7.03304598 L9.80452675,7.6566092 C9.55761317,7.90804598 9.32098765,8.1795977 9.10493827,8.45114943 L9.10493827,8.45114943 L8.3127572,7.78735632 C8.54938272,7.53591954 8.80658436,7.28448276 9.07407407,7.03304598 L9.07407407,7.03304598 Z M19.2695473,6.99281609 L19.4958848,7.6566092 C19.1975309,7.74712644 18.899177,7.86781609 18.600823,8.00862069 L18.600823,8.00862069 L18.3641975,7.31465517 C18.6213992,7.20402299 18.9197531,7.0933908 19.2695473,6.99281609 L19.2695473,6.99281609 Z M21.6769547,6.75143678 C22.0061728,6.77155172 22.345679,6.81178161 22.6954733,6.88218391 L22.6954733,6.88218391 L22.654321,7.50574713 C22.3148148,7.43534483 21.9753086,7.39511494 21.6358025,7.38505747 L21.6358025,7.38505747 Z M13.2304527,3.97557471 L13.6934156,4.66954023 C13.4259259,4.80028736 13.1687243,4.95114943 12.9012346,5.11206897 L12.9012346,5.11206897 L12.4279835,4.40804598 C12.7057613,4.24712644 12.973251,4.10632184 13.2304527,3.97557471 L13.2304527,3.97557471 Z M17.7674897,3 L17.973251,3.61350575 L17.8703704,3.61350575 C17.5720165,3.61350575 17.2736626,3.62356322 16.9753086,3.65373563 L16.9753086,3.65373563 L16.7798354,3.06034483 C17.1193416,3.02011494 17.4485597,3 17.7674897,3 L17.7674897,3 Z" id="Combined-Shape" fill="#FFFFFF" fill-rule="nonzero"></path>
                        <path d="M1,17 L33,17 C33.5522847,17 34,17.4477153 34,18 L34,19 C34,19.5522847 33.5522847,20 33,20 L1,20 C0.44771525,20 6.76353751e-17,19.5522847 0,19 L0,18 C-6.76353751e-17,17.4477153 0.44771525,17 1,17 Z" id="Rectangle" fill="#EE5A5A"></path>
                    </g>
                </g>
            </g>
        </g>
    </g>
</svg>