<?xml version="1.0" encoding="UTF-8"?>
<svg width="50px" height="50px" viewBox="0 0 50 50" version="1.1" xmlns="http://www.w3.org/2000/svg" xmlns:xlink="http://www.w3.org/1999/xlink">
    <!-- Generator: Sketch 63.1 (92452) - https://sketch.com -->
    <title>Hire Dedicated</title>
    <desc>Created with Sketch.</desc>
    <defs>
        <filter x="-8.8%" y="-15.0%" width="117.6%" height="130.0%" filterUnits="objectBoundingBox" id="filter-1">
            <feGaussianBlur stdDeviation="1" in="SourceGraphic"></feGaussianBlur>
        </filter>
    </defs>
    <g id="Simform-Website" stroke="none" stroke-width="1" fill="none" fill-rule="evenodd">
        <g id="Homepage-menu-" transform="translate(-833.000000, -229.000000)">
            <g id="Group" transform="translate(168.000000, 68.000000)">
                <g id="Hire-Dedicated" transform="translate(665.000000, 161.000000)">
                    <circle id="Oval" fill="#FFE0E0" cx="25" cy="25" r="25"></circle>
                    <g id="Dedicated-software-team" transform="translate(8.000000, 15.000000)">
                        <path d="M1,22 C0.44771525,22 -4.26258006e-13,21.5522847 -4.26325641e-13,21 L-4.26325641e-13,20 C-4.26393277e-13,19.4477153 0.44771525,19 1,19 L2,19 L2,3 C2,2.44771525 2.44771525,2 3,2 L31,2 C31.5522847,2 32,2.44771525 32,3 L32,19 L33,19 C33.5522847,19 34,19.4477153 34,20 L34,21 C34,21.5522847 33.5522847,22 33,22 L1,22 Z" id="Combined-Shape" fill-opacity="0.49724104" fill="#E0A0A0" filter="url(#filter-1)"></path>
                        <path d="M3,0 L31,0 C31.5522847,-1.01453063e-16 32,0.44771525 32,1 L32,19 C32,19.5522847 31.5522847,20 31,20 L3,20 C2.44771525,20 2,19.5522847 2,19 L2,1 C2,0.44771525 2.44771525,1.01453063e-16 3,0 Z" id="Rectangle" fill="#E0A0A0"></path>
                        <path d="M1,17 L33,17 C33.5522847,17 34,17.4477153 34,18 L34,19 C34,19.5522847 33.5522847,20 33,20 L1,20 C0.44771525,20 6.76353751e-17,19.5522847 0,19 L0,18 C-6.76353751e-17,17.4477153 0.44771525,17 1,17 Z" id="Rectangle" fill="#E0A0A0"></path>
                        <path d="M15.7558327,3 C18.9346815,3 21.5116654,5.57698392 21.5116654,8.75588865 C21.5116654,9.92449423 21.1623813,11.0111621 20.5639282,11.9189651 C20.5808191,11.9340104 20.5997795,11.9453083 20.6159433,11.9614721 L20.6159433,11.9614721 L23.6573716,15.0028445 C24.1142095,15.4597382 24.1142095,16.2004778 23.6573716,16.6573716 C23.2004219,17.1142095 22.4596823,17.1142095 22.0027885,16.6573716 L22.0027885,16.6573716 L18.9613043,13.6158874 C18.9451405,13.5997235 18.9338985,13.5807632 18.9188533,13.5639282 C18.0110502,14.1623813 16.9244383,14.5116654 15.7557768,14.5116654 C12.576928,14.5116654 10,11.9346256 10,8.75583272 C10,5.57698392 12.5769839,3 15.7558327,3 Z M15.7558327,4.99530985 C13.6789766,4.99530985 11.9953099,6.67892071 11.9953099,8.75583272 C11.9953099,9.84717739 12.4602026,10.8299359 13.2027645,11.5168765 C13.5440346,10.6206564 14.2791893,10 15.1290437,10 L15.1290437,10 L16.870976,10 C17.6063957,10 18.2559175,10.4647643 18.6385575,11.1698616 C19.186734,10.5165777 19.5162997,9.67469266 19.5162997,8.75583272 C19.5162997,6.67897664 17.8326329,4.99530985 15.7558327,4.99530985 Z M16,6 C16.8271064,6 17.5,6.67289359 17.5,7.5 C17.5,8.32710641 16.8271064,9 16,9 C15.1728936,9 14.5,8.32710641 14.5,7.5 C14.5,6.67289359 15.1728936,6 16,6 Z" id="Combined-Shape" fill="#FFFFFF"></path>
                    </g>
                </g>
            </g>
        </g>
    </g>
</svg>