<?xml version="1.0" encoding="UTF-8"?>
<svg width="50px" height="50px" viewBox="0 0 50 50" version="1.1" xmlns="http://www.w3.org/2000/svg" xmlns:xlink="http://www.w3.org/1999/xlink">
    <!-- Generator: Sketch 63.1 (92452) - https://sketch.com -->
    <title>API integration</title>
    <desc>Created with Sketch.</desc>
    <defs>
        <filter x="-8.8%" y="-15.0%" width="117.6%" height="130.0%" filterUnits="objectBoundingBox" id="filter-1">
            <feGaussianBlur stdDeviation="1" in="SourceGraphic"></feGaussianBlur>
        </filter>
    </defs>
    <g id="Simform-Website" stroke="none" stroke-width="1" fill="none" fill-rule="evenodd">
        <g id="Homepage-menu-" transform="translate(-413.000000, -229.000000)">
            <g id="Group" transform="translate(168.000000, 68.000000)">
                <g id="API-integration" transform="translate(245.000000, 161.000000)">
                    <circle id="Oval" fill="#E3E3E3" cx="25" cy="25" r="25"></circle>
                    <g id="API-integration-Services" transform="translate(8.000000, 15.000000)">
                        <g id="Group-13">
                            <path d="M1,22 C0.44771525,22 -4.26258006e-13,21.5522847 -4.26325641e-13,21 L-4.26325641e-13,20 C-4.26393277e-13,19.4477153 0.44771525,19 1,19 L2,19 L2,3 C2,2.44771525 2.44771525,2 3,2 L31,2 C31.5522847,2 32,2.44771525 32,3 L32,19 L33,19 C33.5522847,19 34,19.4477153 34,20 L34,21 C34,21.5522847 33.5522847,22 33,22 L1,22 Z" id="Combined-Shape" fill-opacity="0.500874126" fill="#B0ADAD" opacity="0.329999983" filter="url(#filter-1)"></path>
                            <path d="M3,0 L31,0 C31.5522847,-1.01453063e-16 32,0.44771525 32,1 L32,19 C32,19.5522847 31.5522847,20 31,20 L3,20 C2.44771525,20 2,19.5522847 2,19 L2,1 C2,0.44771525 2.44771525,1.01453063e-16 3,0 Z" id="Rectangle" fill="#B0ADAD"></path>
                            <path d="M1,17 L33,17 C33.5522847,17 34,17.4477153 34,18 L34,19 C34,19.5522847 33.5522847,20 33,20 L1,20 C0.44771525,20 6.76353751e-17,19.5522847 0,19 L0,18 C-6.76353751e-17,17.4477153 0.44771525,17 1,17 Z" id="Rectangle" fill="#B0ADAD"></path>
                            <path d="M11.5000361,6 C9.57015347,6 8,7.34992595 8,9.00912594 L8,13.0695727 C8,13.5834167 8.4845449,14 9.08221762,14 C9.67989034,14 10.1644352,13.5834167 10.1644352,13.0695727 L10.1644352,11.3057927 L12.8355648,11.3057927 L12.8355648,13.0695727 C12.8355648,13.5834167 13.3201097,14 13.9177824,14 C14.5154551,14 15,13.5834167 15,13.0695727 L15,9.00912594 C15.0000721,7.34992595 13.4299187,6 11.5000361,6 Z M12.8356369,9.44500012 L10.1645074,9.44500012 L10.1645074,9.00918797 L10.1644352,9.00918797 C10.1644352,8.37600118 10.7636231,7.86091663 11.5000361,7.86091663 C12.2364491,7.86091663 12.8356369,8.37600118 12.8356369,9.00918797 L12.8356369,9.44500012 Z" id="Shape" fill="#FFFFFF" fill-rule="nonzero"></path>
                            <path d="M19.9143004,6 L17.0821953,6 C16.4845349,6 16,6.41658332 16,6.9304273 L16,13.0695727 C16,13.5834167 16.4845349,14 17.0821953,14 C17.6798557,14 18.1643906,13.5834167 18.1643906,13.0695727 L18.1643906,11.3057927 L19.9143004,11.3057927 C21.6157279,11.3057927 23,10.1156521 23,8.65283431 C23,7.19007854 21.6157279,6 19.9143004,6 Z M19.9143004,9.44500012 L18.1643906,9.44500012 L18.1643906,7.86091663 L19.9143004,7.86091663 C20.4222829,7.86091663 20.8356094,8.21627783 20.8356094,8.6530204 C20.8356094,9.089825 20.4222829,9.44500012 19.9143004,9.44500012 Z" id="Shape" fill="#FFFFFF" fill-rule="nonzero"></path>
                            <path d="M25,6 C24.4477333,6 24,6.41658332 24,6.9304273 L24,13.0695727 C24,13.5834167 24.4477333,14 25,14 C25.5522667,14 26,13.5834167 26,13.0695727 L26,6.9304273 C26,6.41658332 25.5522667,6 25,6 Z" id="Path" fill="#FFFFFF"></path>
                        </g>
                    </g>
                </g>
            </g>
        </g>
    </g>
</svg>