<?xml version="1.0" encoding="UTF-8"?>
<svg width="50px" height="50px" viewBox="0 0 50 50" version="1.1" xmlns="http://www.w3.org/2000/svg" xmlns:xlink="http://www.w3.org/1999/xlink">
    <!-- Generator: Sketch 63.1 (92452) - https://sketch.com -->
    <title>Group 3</title>
    <desc>Created with Sketch.</desc>
    <defs>
        <filter x="-8.8%" y="-15.0%" width="117.6%" height="130.0%" filterUnits="objectBoundingBox" id="filter-1">
            <feGaussianBlur stdDeviation="1" in="SourceGraphic"></feGaussianBlur>
        </filter>
    </defs>
    <g id="Simform-Website" stroke="none" stroke-width="1" fill="none" fill-rule="evenodd">
        <g id="Homepage-menu-" transform="translate(-345.000000, -108.000000)">
            <g id="Group" transform="translate(310.000000, 68.000000)">
                <g id="Group-3" transform="translate(35.000000, 40.000000)">
                    <circle id="Oval" fill="#FFD0D1" cx="25" cy="25" r="25"></circle>
                    <g id="Custom-Software-Development" transform="translate(8.000000, 15.000000)">
                        <g id="Group">
                            <path d="M1,22 C0.44771525,22 -4.26258006e-13,21.5522847 -4.26325641e-13,21 L-4.26325641e-13,20 C-4.26393277e-13,19.4477153 0.44771525,19 1,19 L2,19 L2,3 C2,2.44771525 2.44771525,2 3,2 L31,2 C31.5522847,2 32,2.44771525 32,3 L32,19 L33,19 C33.5522847,19 34,19.4477153 34,20 L34,21 C34,21.5522847 33.5522847,22 33,22 L1,22 Z" id="Combined-Shape" fill-opacity="0.50038243" fill="#F56C70" filter="url(#filter-1)"></path>
                            <path d="M3,0 L31,0 C31.5522847,-1.01453063e-16 32,0.44771525 32,1 L32,19 C32,19.5522847 31.5522847,20 31,20 L3,20 C2.44771525,20 2,19.5522847 2,19 L2,1 C2,0.44771525 2.44771525,1.01453063e-16 3,0 Z" id="Rectangle" fill="#F56C70"></path>
                            <path d="M16.5527925,3 L23.2820513,5.27918534 L22.1924714,13.8957566 L16.5527925,17 L11.0013468,13.9370147 L10,5.32044342 L16.5527925,3 Z M16.5631576,4.63463785 L12.4800065,13.6637381 L14.0053351,13.6379583 L14.8251112,11.601093 L18.4880352,11.601093 L19.3856273,13.6637381 L20.8435049,13.689518 L16.5631576,4.63463785 Z M16.5735747,7.52746594 L17.9536363,10.3944624 L15.359458,10.3944624 L16.5735747,7.52746594 Z" id="Combined-Shape" fill="#FFFFFF" fill-rule="nonzero"></path>
                            <path d="M1,17 L33,17 C33.5522847,17 34,17.4477153 34,18 L34,19 C34,19.5522847 33.5522847,20 33,20 L1,20 C0.44771525,20 6.76353751e-17,19.5522847 0,19 L0,18 C-6.76353751e-17,17.4477153 0.44771525,17 1,17 Z" id="Rectangle" fill="#F56C70"></path>
                        </g>
                    </g>
                </g>
            </g>
        </g>
    </g>
</svg>