<?xml version="1.0" encoding="UTF-8"?>
<svg width="50px" height="50px" viewBox="0 0 50 50" version="1.1" xmlns="http://www.w3.org/2000/svg" xmlns:xlink="http://www.w3.org/1999/xlink">
    <!-- Generator: Sketch 63.1 (92452) - https://sketch.com -->
    <title>Custom Soft</title>
    <desc>Created with Sketch.</desc>
    <defs>
        <filter x="-8.8%" y="-15.0%" width="117.6%" height="130.0%" filterUnits="objectBoundingBox" id="filter-1">
            <feGaussianBlur stdDeviation="1" in="SourceGraphic"></feGaussianBlur>
        </filter>
    </defs>
    <g id="Simform-Website" stroke="none" stroke-width="1" fill="none" fill-rule="evenodd">
        <g id="Homepage-menu-" transform="translate(-203.000000, -108.000000)">
            <g id="Group" transform="translate(168.000000, 68.000000)">
                <g id="Custom-Soft" transform="translate(35.000000, 40.000000)">
                    <circle id="Oval" fill="#FDE8DA" cx="25" cy="25" r="25"></circle>
                    <g id="Custom-Software-Development" transform="translate(8.000000, 15.000000)">
                        <g id="Group" fill="#F9AA8F">
                            <path d="M1,22 C0.44771525,22 -4.26258006e-13,21.5522847 -4.26325641e-13,21 L-4.26325641e-13,20 C-4.26393277e-13,19.4477153 0.44771525,19 1,19 L2,19 L2,3 C2,2.44771525 2.44771525,2 3,2 L31,2 C31.5522847,2 32,2.44771525 32,3 L32,19 L33,19 C33.5522847,19 34,19.4477153 34,20 L34,21 C34,21.5522847 33.5522847,22 33,22 L1,22 Z" id="Combined-Shape" fill-opacity="0.501420455" filter="url(#filter-1)"></path>
                            <path d="M3,0 L31,0 C31.5522847,-1.01453063e-16 32,0.44771525 32,1 L32,19 C32,19.5522847 31.5522847,20 31,20 L3,20 C2.44771525,20 2,19.5522847 2,19 L2,1 C2,0.44771525 2.44771525,1.01453063e-16 3,0 Z" id="Rectangle"></path>
                            <path d="M1,17 L33,17 C33.5522847,17 34,17.4477153 34,18 L34,19 C34,19.5522847 33.5522847,20 33,20 L1,20 C0.44771525,20 6.76353751e-17,19.5522847 0,19 L0,18 C-6.76353751e-17,17.4477153 0.44771525,17 1,17 Z" id="Rectangle"></path>
                        </g>
                        <g id="code" transform="translate(10.000000, 0.000000)" fill="#FFFFFF">
                            <path d="M6.25379183,8.94270096 L1.92044221,5.27610304 C1.42860081,4.85988296 0.692326322,4.92118443 0.27609001,5.4131127 C-0.140146303,5.90504097 -0.0787755109,6.64118358 0.413124221,7.05740366 L3.69389475,9.8334096 L0.413124221,12.6093572 C-0.0787755109,13.0255773 -0.140087966,13.7617199 0.27609001,14.2536482 C0.693318055,14.7466263 1.42976756,14.805828 1.92044221,14.3905995 L6.25379183,10.7240016 C6.80507888,10.2575621 6.80350378,9.40785723 6.25379183,8.94270096 Z" id="Path"></path>
                            <path d="M13.8204675,12.3333333 L8.51286588,12.3333333 C7.86141005,12.3333333 7.33333333,12.85563 7.33333333,13.5 C7.33333333,14.14437 7.86141005,14.6666667 8.51286588,14.6666667 L13.8204675,14.6666667 C14.4718643,14.6666667 15,14.14437 15,13.5 C15,12.85563 14.4719233,12.3333333 13.8204675,12.3333333 Z" id="Path"></path>
                        </g>
                    </g>
                </g>
            </g>
        </g>
    </g>
</svg>