<?xml version="1.0" encoding="UTF-8"?>
<svg width="50px" height="50px" viewBox="0 0 50 50" version="1.1" xmlns="http://www.w3.org/2000/svg" xmlns:xlink="http://www.w3.org/1999/xlink">
    <!-- Generator: Sketch 63.1 (92452) - https://sketch.com -->
    <title>Group 4</title>
    <desc>Created with Sketch.</desc>
    <defs>
        <filter x="-8.8%" y="-15.0%" width="117.6%" height="130.0%" filterUnits="objectBoundingBox" id="filter-1">
            <feGaussianBlur stdDeviation="1" in="SourceGraphic"></feGaussianBlur>
        </filter>
    </defs>
    <g id="Simform-Website" stroke="none" stroke-width="1" fill="none" fill-rule="evenodd">
        <g id="Homepage-menu-" transform="translate(-503.000000, -108.000000)">
            <g id="Group" transform="translate(310.000000, 68.000000)">
                <g id="Group-4" transform="translate(193.000000, 40.000000)">
                    <circle id="Oval" fill="#BEDFBB" cx="25" cy="25" r="25"></circle>
                    <g id="Group" transform="translate(8.000000, 15.000000)">
                        <path d="M1,22 C0.44771525,22 -4.26258006e-13,21.5522847 -4.26325641e-13,21 L-4.26325641e-13,20 C-4.26393277e-13,19.4477153 0.44771525,19 1,19 L2,19 L2,3 C2,2.44771525 2.44771525,2 3,2 L31,2 C31.5522847,2 32,2.44771525 32,3 L32,19 L33,19 C33.5522847,19 34,19.4477153 34,20 L34,21 C34,21.5522847 33.5522847,22 33,22 L1,22 Z" id="Combined-Shape" fill-opacity="0.5" fill="#7AB575" opacity="0.900000036" filter="url(#filter-1)"></path>
                        <path d="M3,0 L31,0 C31.5522847,-1.01453063e-16 32,0.44771525 32,1 L32,19 C32,19.5522847 31.5522847,20 31,20 L3,20 C2.44771525,20 2,19.5522847 2,19 L2,1 C2,0.44771525 2.44771525,1.01453063e-16 3,0 Z" id="Rectangle" fill="#7AB575"></path>
                        <path d="M21.4883986,6.00173178 L21.53198,6.01710373 L22.8424554,6.76029251 C22.9266835,6.80820439 22.9791961,6.89837592 22.9791961,6.99641831 L22.9791961,6.99641831 L22.9791961,13.4367891 C22.9791961,13.5334581 22.9282433,13.6222033 22.8460949,13.6708019 L22.8460949,13.6708019 L20.6431652,14.9639472 C20.5606528,15.0120176 20.4593711,15.0120176 20.3771187,14.9639472 L20.3771187,14.9639472 L18.174189,13.6713302 C18.0918846,13.6227316 18.0410878,13.5339863 18.0410878,13.4373173 L18.0410878,13.4373173 L18.0410878,10.8531397 C18.0410878,10.756999 18.0918846,10.6677255 18.174189,10.6196551 L18.174189,10.6196551 L20.3771187,9.32793607 C20.4595791,9.27965442 20.5607568,9.27965442 20.6429053,9.32793607 L20.6429053,9.32793607 L21.1945476,9.65074698 C21.2234035,9.66765084 21.2590185,9.66765084 21.2876144,9.65074698 C21.3164184,9.63384312 21.3340959,9.60267663 21.3340959,9.56886891 L21.3340959,9.56886891 L21.3340959,6.13527228 C21.3340959,6.08720192 21.3591564,6.04282929 21.3997106,6.01852999 C21.4404729,5.99438917 21.4906978,5.99375527 21.53198,6.01710373 Z M26.4119606,9.29333598 C26.4946289,9.24473739 26.5960146,9.24473739 26.678683,9.29333598 L26.678683,9.29333598 L28.8675747,10.5843683 C28.9495671,10.6328613 29,10.721765 29,10.818117 L29,10.818117 L29,11.444405 C29,11.5405457 28.9496191,11.6297136 28.8677826,11.6779953 L28.8677826,11.6779953 L27.5464408,12.4577386 C27.5053665,12.4820379 27.4544137,12.4820379 27.4133395,12.4582669 C27.3722653,12.4339676 27.3467889,12.3890667 27.3467889,12.3409964 L27.3467889,12.3409964 L27.3467889,11.7039321 C27.3467889,11.6558618 27.3213125,11.6109609 27.2802383,11.5871898 L27.2802383,11.5871898 L26.5902955,11.1830819 C26.5492212,11.1587826 26.4987883,11.1587826 26.4577141,11.1830819 L26.4577141,11.1830819 L25.7682912,11.5871898 C25.7266971,11.6112778 25.7017406,11.6558618 25.7017406,11.7042491 L25.7017406,11.7042491 L25.7017406,12.5145779 C25.7017406,12.5626482 25.727217,12.6075491 25.7688112,12.6313202 L25.7688112,12.6313202 L27.984739,13.923409 C28.0263332,13.94718 28.0518096,13.9926092 28.0518096,14.0412078 C28.0518096,14.0898064 28.0252933,14.1347072 27.9836992,14.1584783 L27.9836992,14.1584783 L26.6599656,14.9059459 C26.5783371,14.9519032 26.4795511,14.951375 26.3989624,14.9043611 L26.3989624,14.9043611 L24.2105907,13.6370998 C24.1279223,13.5890295 24.0764496,13.4992277 24.0764496,13.4020305 L24.0764496,13.4020305 L24.0764496,10.8189094 C24.0764496,10.7222404 24.1268825,10.6334952 24.2095508,10.5848966 L24.2095508,10.5848966 Z M14.4989793,9.24869739 C14.5447329,9.24869739 14.5904864,9.26068857 14.6315607,9.2846181 L14.6315607,9.2846181 L16.8214922,10.569153 C16.9036406,10.6172234 16.9540735,10.7059686 16.9540735,10.801898 L16.9540735,10.801898 L16.9540735,13.3727639 C16.9540735,13.4686933 16.9036406,13.5574386 16.8220121,13.6055089 L16.8220121,13.6055089 L14.6317686,14.8910475 C14.5499842,14.9389594 14.4490144,14.9389594 14.3671259,14.8910475 L14.3671259,14.8910475 L12.1765185,13.6055089 C12.0944741,13.5574386 12.0441451,13.4687461 12.0441451,13.3727639 L12.0441451,13.3727639 L12.0441451,10.801898 C12.0441451,10.7059686 12.0944741,10.6172234 12.1765185,10.569153 L12.1765185,10.569153 L14.366398,9.2846181 C14.4074722,9.26068857 14.4532258,9.24869739 14.4989793,9.24869739 Z M8.47973868,9.22572054 C8.52195673,9.22730528 8.56360287,9.23892668 8.60077763,9.261113 L8.60077763,9.261113 L10.8029794,10.5484476 C10.8855438,10.5967821 10.9359767,10.6860556 10.9359767,10.7832528 L10.9359767,10.7832528 L10.9317133,14.2501289 C10.9317133,14.2981993 10.9061329,14.3431001 10.8657866,14.3668712 C10.8248683,14.3916987 10.7737595,14.3916987 10.7326853,14.3668712 L10.7326853,14.3668712 L9.42434161,13.6056692 C9.3420892,13.5560141 9.2909804,13.4672689 9.2909804,13.3711282 L9.2909804,13.3711282 L9.2909804,11.7513686 C9.2909804,11.6546996 9.24033953,11.5654261 9.15787915,11.5173558 L9.15787915,11.5173558 L8.60077763,11.1913226 C8.5605353,11.1669704 8.51405385,11.1550321 8.46850826,11.1550321 C8.42223478,11.1550321 8.37679318,11.1670761 8.33540701,11.1913754 L8.33540701,11.1913754 L7.77804553,11.5175142 C7.69563714,11.5655846 7.64520424,11.6548581 7.64520424,11.7515271 L7.64520424,11.7515271 L7.64520424,13.3713923 C7.64520424,13.4676386 7.59477135,13.5559613 7.51210299,13.6059334 L7.51210299,13.6059334 L6.20292741,14.3676636 C6.16237313,14.3930194 6.1114203,14.3930194 6.07086602,14.3676636 C6.02927188,14.3438925 6.00483532,14.2989916 6.00483532,14.2509213 L6.00483532,14.2509213 L6,10.7835169 C6,10.6863197 6.05116079,10.5970462 6.13320524,10.5484476 L6.13320524,10.5484476 L8.33530303,9.261113 C8.3731017,9.23892668 8.41474784,9.22730528 8.45696589,9.22572054 L8.45696589,9.22572054 Z M20.5376201,11.1989821 C20.516823,11.1868325 20.4913466,11.1868325 20.4705495,11.1989821 L20.4705495,11.1989821 L19.714576,11.6427084 C19.6942989,11.6548581 19.6818206,11.6771501 19.6818206,11.7013437 L19.6818206,11.7013437 L19.6818206,12.5885851 C19.6818206,12.6126731 19.6942989,12.6350179 19.715096,12.6470091 L19.715096,12.6470091 L20.4715894,13.0899958 C20.4920745,13.101987 20.5174469,13.101987 20.537984,13.0899958 L20.537984,13.0899958 L21.2943735,12.6470091 C21.3150146,12.6350707 21.3276488,12.6127259 21.3276488,12.5885851 L21.3276488,12.5885851 L21.3273888,11.7013437 C21.3273888,11.6771501 21.3149106,11.6548581 21.2941135,11.6427084 L21.2941135,11.6427084 Z M26.5640392,11.5571327 L26.9867396,11.8048799 C27.0025454,11.814177 27.012216,11.8312921 27.012216,11.8497807 L27.012216,12.3458034 C27.012216,12.364292 27.0025454,12.3814071 26.9867396,12.3907043 L26.5640392,12.6384515 C26.5482334,12.6478014 26.5286841,12.6478014 26.5130863,12.6384515 L26.0906458,12.3907043 C26.0745281,12.3814071 26.0646495,12.364292 26.0646495,12.3458034 L26.0646495,11.8497807 C26.0646495,11.8312921 26.0740082,11.814177 26.0901259,11.8048799 L26.5130863,11.5571327 C26.5286841,11.5477827 26.5482334,11.5477827 26.5640392,11.5571327 Z" id="Combined-Shape" fill="#FFFFFF"></path>
                        <path d="M1,17 L33,17 C33.5522847,17 34,17.4477153 34,18 L34,19 C34,19.5522847 33.5522847,20 33,20 L1,20 C0.44771525,20 6.76353751e-17,19.5522847 0,19 L0,18 C-6.76353751e-17,17.4477153 0.44771525,17 1,17 Z" id="Rectangle" fill="#7AB575"></path>
                    </g>
                </g>
            </g>
        </g>
    </g>
</svg>