<?xml version="1.0" encoding="UTF-8"?>
<svg width="50px" height="50px" viewBox="0 0 50 50" version="1.1" xmlns="http://www.w3.org/2000/svg" xmlns:xlink="http://www.w3.org/1999/xlink">
    <!-- Generator: Sketch 53.2 (72643) - https://sketchapp.com -->
    <title>Product Development Services</title>
    <desc>Created with Sketch.</desc>
    <defs>
        <linearGradient x1="75.4765625%" y1="91.8652344%" x2="23.3007812%" y2="9.76367188%" id="linearGradient-1">
            <stop stop-color="#C18CE9" offset="0%"></stop>
            <stop stop-color="#EDD5FF" offset="100%"></stop>
        </linearGradient>
        <filter x="-8.7%" y="-15.3%" width="117.5%" height="130.6%" filterUnits="objectBoundingBox" id="filter-2">
            <feGaussianBlur stdDeviation="1" in="SourceGraphic"></feGaussianBlur>
        </filter>
    </defs>
    <g id="Page-1" stroke="none" stroke-width="1" fill="none" fill-rule="evenodd">
        <g id="Icons-V2-Copy" transform="translate(-439.000000, -170.000000)">
            <g id="Product-Development-Services" transform="translate(439.000000, 170.000000)">
                <circle id="Oval" fill="url(#linearGradient-1)" cx="25" cy="25" r="25"></circle>
                <path d="M40.342377,33.66 L41.32,33.66 C41.8722847,33.66 42.32,34.1077153 42.32,34.66 L42.32,35.6 C42.32,36.1522847 41.8722847,36.6 41.32,36.6 L9,36.6 C8.44771525,36.6 8,36.1522847 8,35.6 L8,34.66 C8,34.1077153 8.44771525,33.66 9,33.66 L10.060024,33.66 L10.060024,18 C10.060024,17.4477153 10.5077393,17 11.060024,17 L39.342377,17 C39.8946617,17 40.342377,17.4477153 40.342377,18 L40.342377,33.66 Z" id="Combined-Shape" fill="#B382DA" filter="url(#filter-2)"></path>
                <g id="Group" transform="translate(8.000000, 15.000000)">
                    <path d="M3,0 L31,0 C31.5522847,-1.01453063e-16 32,0.44771525 32,1 L32,19 C32,19.5522847 31.5522847,20 31,20 L3,20 C2.44771525,20 2,19.5522847 2,19 L2,1 C2,0.44771525 2.44771525,1.01453063e-16 3,0 Z" id="Rectangle" fill="#FFFFFF"></path>
                    <path d="M1,17 L33,17 C33.5522847,17 34,17.4477153 34,18 L34,19 C34,19.5522847 33.5522847,20 33,20 L1,20 C0.44771525,20 6.76353751e-17,19.5522847 0,19 L0,18 C-6.76353751e-17,17.4477153 0.44771525,17 1,17 Z" id="Rectangle" fill="#FFFFFF"></path>
                    <path d="M21.5897245,6.69201965 C21.491225,6.63312247 22.3316093,7.15189476 17.4458031,4.12343229 C17.1809712,3.95934939 16.8491397,3.95878144 16.5837523,4.12218278 L12.4133866,6.69020219 C12.1592213,6.8419604 12,7.12383766 12,7.42616139 L12,12.5745249 C12.0000556,12.8727593 12.1526658,13.1493546 12.4023867,13.3036118 L16.5690302,15.8778219 C16.8373065,16.0437223 17.1724713,16.0377019 17.4310254,15.8778219 L21.5976689,13.3036118 C21.8473897,13.1493546 22,12.8727593 22,12.5744681 L22,7.4261046 C22,6.91687399 21.5951689,6.69769922 21.5897245,6.69201965 Z M16.1666991,13.6384227 L13.666713,12.0939193 L13.666713,8.93636013 L16.1666991,10.4808635 L16.1666991,13.6384227 Z M17.0000278,9.00491259 L14.446542,7.4273541 L17.012361,5.8473534 L19.557458,7.42491188 L17.0000278,9.00491259 Z M20.3333426,12.0939193 L17.8333565,13.6384227 L17.8333565,10.4808635 L20.3333426,8.93636013 L20.3333426,12.0939193 Z" id="Shape" fill="#CCA0EE" fill-rule="nonzero"></path>
                </g>
            </g>
        </g>
    </g>
</svg>