<?xml version="1.0" encoding="UTF-8"?>
<svg width="50px" height="50px" viewBox="0 0 50 50" version="1.1" xmlns="http://www.w3.org/2000/svg" xmlns:xlink="http://www.w3.org/1999/xlink">
    <!-- Generator: Sketch 53.2 (72643) - https://sketchapp.com -->
    <title>Software Testing &amp; QA services team</title>
    <desc>Created with Sketch.</desc>
    <defs>
        <linearGradient x1="75.4765625%" y1="91.8652344%" x2="23.3007812%" y2="9.76367188%" id="linearGradient-1">
            <stop stop-color="#FFCD68" offset="3.53368858%"></stop>
            <stop stop-color="#FFF1D6" offset="100%"></stop>
        </linearGradient>
        <filter x="-8.7%" y="-15.3%" width="117.5%" height="130.6%" filterUnits="objectBoundingBox" id="filter-2">
            <feGaussianBlur stdDeviation="1" in="SourceGraphic"></feGaussianBlur>
        </filter>
    </defs>
    <g id="Page-1" stroke="none" stroke-width="1" fill="none" fill-rule="evenodd">
        <g id="Icons-V2-Copy" transform="translate(-118.000000, -170.000000)">
            <g id="Software-Testing-&amp;-QA-services-team" transform="translate(118.000000, 170.000000)">
                <circle id="Oval" fill="url(#linearGradient-1)" cx="25" cy="25" r="25"></circle>
                <path d="M40.342377,33.66 L41.32,33.66 C41.8722847,33.66 42.32,34.1077153 42.32,34.66 L42.32,35.6 C42.32,36.1522847 41.8722847,36.6 41.32,36.6 L9,36.6 C8.44771525,36.6 8,36.1522847 8,35.6 L8,34.66 C8,34.1077153 8.44771525,33.66 9,33.66 L10.060024,33.66 L10.060024,18 C10.060024,17.4477153 10.5077393,17 11.060024,17 L39.342377,17 C39.8946617,17 40.342377,17.4477153 40.342377,18 L40.342377,33.66 Z" id="Combined-Shape" fill="#EDB94E" filter="url(#filter-2)"></path>
                <g id="Group" transform="translate(8.000000, 15.000000)">
                    <path d="M3,0 L31,0 C31.5522847,-1.01453063e-16 32,0.44771525 32,1 L32,19 C32,19.5522847 31.5522847,20 31,20 L3,20 C2.44771525,20 2,19.5522847 2,19 L2,1 C2,0.44771525 2.44771525,1.01453063e-16 3,0 Z" id="Rectangle" fill="#FFFFFF"></path>
                    <path d="M1,17 L33,17 C33.5522847,17 34,17.4477153 34,18 L34,19 C34,19.5522847 33.5522847,20 33,20 L1,20 C0.44771525,20 -4.40468861e-13,19.5522847 -4.40536496e-13,19 L-4.40536496e-13,18 C-4.40604132e-13,17.4477153 0.44771525,17 1,17 Z" id="Rectangle" fill="#FFFFFF"></path>
                    <g id="musica-searcher" transform="translate(10.000000, 3.000000)" fill="#EDB441" fill-rule="nonzero" opacity="0.701939174">
                        <path d="M13.6573716,12.0028445 L10.6159433,8.96147208 C10.5997795,8.94530826 10.5808191,8.93401036 10.5639282,8.91896513 C11.1623813,8.01116207 11.5116654,6.92449423 11.5116654,5.75588865 C11.5116654,2.57698392 8.93468152,0 5.75583272,0 C2.57698392,0 0,2.57698392 0,5.75583272 C0,8.93462559 2.57692799,11.5116654 5.75577679,11.5116654 C6.9244383,11.5116654 8.01105021,11.1623813 8.91885327,10.5639282 C8.93389849,10.5807632 8.94514046,10.5997235 8.96130429,10.6158874 L12.0027885,13.6573716 C12.4596823,14.1142095 13.2004219,14.1142095 13.6573716,13.6573716 C14.1142095,13.2004778 14.1142095,12.4597382 13.6573716,12.0028445 Z M5.75583272,9.51629966 C3.67892071,9.51629966 1.99530985,7.8326888 1.99530985,5.75583272 C1.99530985,3.67892071 3.67897664,1.99530985 5.75583272,1.99530985 C7.83263287,1.99530985 9.51629966,3.67897664 9.51629966,5.75583272 C9.51629966,7.8326888 7.83263287,9.51629966 5.75583272,9.51629966 Z" id="Shape"></path>
                    </g>
                </g>
            </g>
        </g>
    </g>
</svg>