<?xml version="1.0" encoding="UTF-8"?>
<svg width="20px" height="17px" viewBox="0 0 20 17" version="1.1" xmlns="http://www.w3.org/2000/svg" xmlns:xlink="http://www.w3.org/1999/xlink">
    <!-- Generator: Sketch 55.2 (78181) - https://sketchapp.com -->
    <title>013-twitter-1</title>
    <desc>Created with Sketch.</desc>
    <g id="Page-1" stroke="none" stroke-width="1" fill="none" fill-rule="evenodd">
        <g id="Home" transform="translate(-451.000000, -13547.000000)" fill="#EF5366" fill-rule="nonzero">
            <g id="Footer" transform="translate(0.000000, 13538.000000)">
                <g id="social-media" transform="translate(369.000000, 7.000000)">
                    <g id="013-twitter-1" transform="translate(82.567073, 0.449275)">
                        <path d="M18.6341463,3.92160535 C17.941189,4.24749164 17.202811,4.46350056 16.4329878,4.5683835 C17.224939,4.06144928 17.8293841,3.26483835 18.1135549,2.30465998 C17.3751768,2.77663322 16.5599329,3.11001115 15.6911159,3.29605351 C14.9900061,2.49569677 13.99075,2 12.9006524,2 C10.7856768,2 9.08298171,3.84044593 9.08298171,6.09667781 C9.08298171,6.4213155 9.10860366,6.73346711 9.1714939,7.03063545 C5.99553659,6.86457079 3.18527439,5.23264214 1.29740244,2.74666667 C0.967810976,3.35973244 0.774481707,4.06144928 0.774481707,4.81685619 C0.774481707,6.23527313 1.45579268,7.49261984 2.47135366,8.22055741 C1.85759146,8.20807135 1.25547561,8.01703456 0.745365854,7.7161204 C0.745365854,7.72860647 0.745365854,7.74483835 0.745365854,7.76107023 C0.745365854,9.75134894 2.06955488,11.4045039 3.80602439,11.7853289 C3.49506707,11.8764771 3.15615854,11.9201784 2.80443902,11.9201784 C2.55986585,11.9201784 2.31296341,11.9051951 2.08120122,11.8502564 C2.57617073,13.4721962 3.98071951,14.6646154 5.65080488,14.7033222 C4.35107317,15.7933556 2.70078659,16.4501226 0.914237805,16.4501226 C0.60095122,16.4501226 0.30047561,16.4351394 0,16.3939353 C1.69221341,17.5638796 3.69771341,18.2318841 5.86043902,18.2318841 C12.8901707,18.2318841 16.7334634,11.9888517 16.7334634,6.5773913 C16.7334634,6.39634337 16.7276402,6.22153846 16.7194878,6.04798216 C17.4776646,5.47112598 18.1147195,4.75068004 18.6341463,3.92160535 Z" id="Shape"></path>
                    </g>
                </g>
            </g>
        </g>
    </g>
</svg>