<?xml version="1.0" encoding="UTF-8"?>
<svg width="20px" height="14px" viewBox="0 0 20 14" version="1.1" xmlns="http://www.w3.org/2000/svg" xmlns:xlink="http://www.w3.org/1999/xlink">
    <!-- Generator: Sketch 55.2 (78181) - https://sketchapp.com -->
    <title>002-youtube</title>
    <desc>Created with Sketch.</desc>
    <g id="Page-1" stroke="none" stroke-width="1" fill="none" fill-rule="evenodd">
        <g id="Home" transform="translate(-493.000000, -13549.000000)" fill="#EF5366" fill-rule="nonzero">
            <g id="Footer" transform="translate(0.000000, 13538.000000)">
                <g id="social-media" transform="translate(369.000000, 7.000000)">
                    <g id="002-youtube" transform="translate(124.493902, 0.768116)">
                        <path d="M17.8421951,5.22898551 C17.3367439,4.33391304 16.7882012,4.16927536 15.6713171,4.10666667 C14.5555976,4.03130435 11.7499939,4 9.31940244,4 C6.88415244,4 4.07738415,4.03130435 2.96282927,4.10550725 C1.84827439,4.16927536 1.29856707,4.33275362 0.788457317,5.22898551 C0.267865854,6.12289855 0,7.6626087 0,10.3733333 C0,10.3756522 0,10.3768116 0,10.3768116 C0,10.3791304 0,10.3802899 0,10.3802899 L0,10.3826087 C0,13.0817391 0.267865854,14.6330435 0.788457317,15.5176812 C1.29856707,16.4127536 1.84710976,16.5750725 2.96166463,16.6504348 C4.07738415,16.7153623 6.88415244,16.7536232 9.31940244,16.7536232 C11.7499939,16.7536232 14.5555976,16.7153623 15.6724817,16.6515942 C16.7893659,16.5762319 17.3379085,16.413913 17.8433598,15.5188406 C18.3686098,14.6342029 18.6341463,13.0828986 18.6341463,10.3837681 C18.6341463,10.3837681 18.6341463,10.3802899 18.6341463,10.377971 C18.6341463,10.377971 18.6341463,10.3756522 18.6341463,10.3744928 C18.6341463,7.6626087 18.3686098,6.12289855 17.8421951,5.22898551 Z M6.98780488,13.8550725 L6.98780488,6.89855072 L12.8109756,10.3768116 L6.98780488,13.8550725 Z" id="Shape"></path>
                    </g>
                </g>
            </g>
        </g>
    </g>
</svg>